ISO-10303-21;
HEADER;
/* Generated by software containing ST-Developer
 * from STEP Tools, Inc. (www.steptools.com) 
 */

FILE_DESCRIPTION(
/* description */ (''),
/* implementation_level */ '2;1');

FILE_NAME(
/* name */ 'ps2b-strip.step',
/* time_stamp */ '2026-08-17T16:18:35-04:00',
/* author */ (''),
/* organization */ (''),
/* preprocessor_version */ 'ST-DEVELOPER v20.1',
/* originating_system */ 'Autodesk Translation Framework v15.8.0.0',
/* authorisation */ '');

FILE_SCHEMA (('AUTOMOTIVE_DESIGN { 1 0 10303 214 3 1 1 }'));
ENDSEC;

DATA;
#10=MECHANICAL_DESIGN_GEOMETRIC_PRESENTATION_REPRESENTATION('',(#13),#1035);
#11=SHAPE_REPRESENTATION_RELATIONSHIP('SRR','None',#1042,#12);
#12=ADVANCED_BREP_SHAPE_REPRESENTATION('',(#14),#1034);
#13=STYLED_ITEM('',(#1052),#14);
#14=MANIFOLD_SOLID_BREP('Body1',#595);
#15=FACE_BOUND('',#73,.T.);
#16=FACE_BOUND('',#74,.T.);
#17=FACE_BOUND('',#95,.T.);
#18=FACE_BOUND('',#96,.T.);
#19=PLANE('',#612);
#20=PLANE('',#616);
#21=PLANE('',#629);
#22=PLANE('',#632);
#23=PLANE('',#635);
#24=PLANE('',#644);
#25=PLANE('',#645);
#26=PLANE('',#646);
#27=PLANE('',#647);
#28=PLANE('',#648);
#29=PLANE('',#649);
#30=PLANE('',#650);
#31=PLANE('',#651);
#32=PLANE('',#652);
#33=PLANE('',#653);
#34=PLANE('',#654);
#35=PLANE('',#655);
#36=PLANE('',#656);
#37=PLANE('',#657);
#38=PLANE('',#658);
#39=FACE_OUTER_BOUND('',#69,.T.);
#40=FACE_OUTER_BOUND('',#70,.T.);
#41=FACE_OUTER_BOUND('',#71,.T.);
#42=FACE_OUTER_BOUND('',#72,.T.);
#43=FACE_OUTER_BOUND('',#75,.T.);
#44=FACE_OUTER_BOUND('',#76,.T.);
#45=FACE_OUTER_BOUND('',#77,.T.);
#46=FACE_OUTER_BOUND('',#78,.T.);
#47=FACE_OUTER_BOUND('',#79,.T.);
#48=FACE_OUTER_BOUND('',#80,.T.);
#49=FACE_OUTER_BOUND('',#81,.T.);
#50=FACE_OUTER_BOUND('',#82,.T.);
#51=FACE_OUTER_BOUND('',#83,.T.);
#52=FACE_OUTER_BOUND('',#84,.T.);
#53=FACE_OUTER_BOUND('',#85,.T.);
#54=FACE_OUTER_BOUND('',#86,.T.);
#55=FACE_OUTER_BOUND('',#87,.T.);
#56=FACE_OUTER_BOUND('',#88,.T.);
#57=FACE_OUTER_BOUND('',#89,.T.);
#58=FACE_OUTER_BOUND('',#90,.T.);
#59=FACE_OUTER_BOUND('',#91,.T.);
#60=FACE_OUTER_BOUND('',#92,.T.);
#61=FACE_OUTER_BOUND('',#93,.T.);
#62=FACE_OUTER_BOUND('',#94,.T.);
#63=FACE_OUTER_BOUND('',#97,.T.);
#64=FACE_OUTER_BOUND('',#98,.T.);
#65=FACE_OUTER_BOUND('',#99,.T.);
#66=FACE_OUTER_BOUND('',#100,.T.);
#67=FACE_OUTER_BOUND('',#101,.T.);
#68=FACE_OUTER_BOUND('',#102,.T.);
#69=EDGE_LOOP('',(#387,#388,#389,#390,#391));
#70=EDGE_LOOP('',(#392,#393,#394,#395,#396,#397,#398));
#71=EDGE_LOOP('',(#399,#400,#401,#402,#403));
#72=EDGE_LOOP('',(#404,#405,#406,#407,#408,#409,#410,#411,#412,#413,#414,
#415));
#73=EDGE_LOOP('',(#416));
#74=EDGE_LOOP('',(#417));
#75=EDGE_LOOP('',(#418,#419,#420,#421,#422));
#76=EDGE_LOOP('',(#423,#424,#425,#426,#427));
#77=EDGE_LOOP('',(#428,#429,#430,#431,#432,#433,#434));
#78=EDGE_LOOP('',(#435,#436,#437,#438,#439));
#79=EDGE_LOOP('',(#440,#441,#442,#443,#444,#445,#446,#447));
#80=EDGE_LOOP('',(#448,#449,#450,#451,#452));
#81=EDGE_LOOP('',(#453,#454,#455,#456,#457,#458,#459,#460));
#82=EDGE_LOOP('',(#461,#462,#463,#464,#465));
#83=EDGE_LOOP('',(#466,#467,#468,#469,#470));
#84=EDGE_LOOP('',(#471,#472,#473,#474));
#85=EDGE_LOOP('',(#475,#476,#477,#478));
#86=EDGE_LOOP('',(#479,#480,#481,#482));
#87=EDGE_LOOP('',(#483,#484,#485,#486));
#88=EDGE_LOOP('',(#487,#488,#489,#490));
#89=EDGE_LOOP('',(#491,#492,#493,#494));
#90=EDGE_LOOP('',(#495,#496,#497,#498));
#91=EDGE_LOOP('',(#499,#500,#501,#502,#503,#504));
#92=EDGE_LOOP('',(#505,#506,#507,#508,#509,#510,#511));
#93=EDGE_LOOP('',(#512,#513,#514,#515));
#94=EDGE_LOOP('',(#516,#517,#518,#519,#520,#521,#522,#523));
#95=EDGE_LOOP('',(#524));
#96=EDGE_LOOP('',(#525));
#97=EDGE_LOOP('',(#526,#527,#528,#529));
#98=EDGE_LOOP('',(#530,#531,#532,#533,#534,#535,#536));
#99=EDGE_LOOP('',(#537,#538,#539,#540));
#100=EDGE_LOOP('',(#541,#542,#543,#544));
#101=EDGE_LOOP('',(#545,#546,#547,#548,#549,#550));
#102=EDGE_LOOP('',(#551,#552,#553,#554));
#103=CIRCLE('',#610,3.234);
#104=CIRCLE('',#611,3.234);
#105=CIRCLE('',#614,3.234);
#106=CIRCLE('',#615,3.234);
#107=CIRCLE('',#617,3.39);
#108=CIRCLE('',#618,3.39);
#109=CIRCLE('',#619,3.39);
#110=CIRCLE('',#620,3.39);
#111=CIRCLE('',#621,1.34999999999998);
#112=CIRCLE('',#622,1.34999999999998);
#113=CIRCLE('',#624,3.234);
#114=CIRCLE('',#625,3.234);
#115=CIRCLE('',#627,3.234);
#116=CIRCLE('',#628,3.234);
#117=CIRCLE('',#631,3.39);
#118=CIRCLE('',#634,3.39);
#119=CIRCLE('',#637,3.39);
#120=CIRCLE('',#639,3.39);
#121=CIRCLE('',#641,1.34999999999998);
#122=CIRCLE('',#643,1.34999999999998);
#123=LINE('',#836,#183);
#124=LINE('',#840,#184);
#125=LINE('',#844,#185);
#126=LINE('',#846,#186);
#127=LINE('',#848,#187);
#128=LINE('',#850,#188);
#129=LINE('',#852,#189);
#130=LINE('',#853,#190);
#131=LINE('',#859,#191);
#132=LINE('',#863,#192);
#133=LINE('',#880,#193);
#134=LINE('',#884,#194);
#135=LINE('',#886,#195);
#136=LINE('',#888,#196);
#137=LINE('',#892,#197);
#138=LINE('',#894,#198);
#139=LINE('',#904,#199);
#140=LINE('',#933,#200);
#141=LINE('',#937,#201);
#142=LINE('',#939,#202);
#143=LINE('',#941,#203);
#144=LINE('',#943,#204);
#145=LINE('',#945,#205);
#146=LINE('',#946,#206);
#147=LINE('',#949,#207);
#148=LINE('',#952,#208);
#149=LINE('',#955,#209);
#150=LINE('',#956,#210);
#151=LINE('',#958,#211);
#152=LINE('',#959,#212);
#153=LINE('',#964,#213);
#154=LINE('',#965,#214);
#155=LINE('',#968,#215);
#156=LINE('',#969,#216);
#157=LINE('',#971,#217);
#158=LINE('',#972,#218);
#159=LINE('',#976,#219);
#160=LINE('',#980,#220);
#161=LINE('',#983,#221);
#162=LINE('',#987,#222);
#163=LINE('',#990,#223);
#164=LINE('',#992,#224);
#165=LINE('',#996,#225);
#166=LINE('',#997,#226);
#167=LINE('',#998,#227);
#168=LINE('',#1001,#228);
#169=LINE('',#1002,#229);
#170=LINE('',#1005,#230);
#171=LINE('',#1006,#231);
#172=LINE('',#1008,#232);
#173=LINE('',#1010,#233);
#174=LINE('',#1015,#234);
#175=LINE('',#1017,#235);
#176=LINE('',#1018,#236);
#177=LINE('',#1020,#237);
#178=LINE('',#1022,#238);
#179=LINE('',#1024,#239);
#180=LINE('',#1025,#240);
#181=LINE('',#1027,#241);
#182=LINE('',#1029,#242);
#183=VECTOR('',#663,10.);
#184=VECTOR('',#666,10.);
#185=VECTOR('',#671,10.);
#186=VECTOR('',#672,10.);
#187=VECTOR('',#673,10.);
#188=VECTOR('',#674,10.);
#189=VECTOR('',#675,10.);
#190=VECTOR('',#676,10.);
#191=VECTOR('',#681,10.);
#192=VECTOR('',#684,10.);
#193=VECTOR('',#689,10.);
#194=VECTOR('',#692,10.);
#195=VECTOR('',#693,10.);
#196=VECTOR('',#694,10.);
#197=VECTOR('',#697,10.);
#198=VECTOR('',#700,10.);
#199=VECTOR('',#709,10.);
#200=VECTOR('',#716,10.);
#201=VECTOR('',#721,10.);
#202=VECTOR('',#722,10.);
#203=VECTOR('',#723,10.);
#204=VECTOR('',#724,10.);
#205=VECTOR('',#725,10.);
#206=VECTOR('',#726,10.);
#207=VECTOR('',#729,10.);
#208=VECTOR('',#732,10.);
#209=VECTOR('',#735,10.);
#210=VECTOR('',#736,10.);
#211=VECTOR('',#737,10.);
#212=VECTOR('',#738,10.);
#213=VECTOR('',#743,10.);
#214=VECTOR('',#744,10.);
#215=VECTOR('',#747,10.);
#216=VECTOR('',#748,10.);
#217=VECTOR('',#749,10.);
#218=VECTOR('',#750,10.);
#219=VECTOR('',#755,10.);
#220=VECTOR('',#760,10.);
#221=VECTOR('',#763,1.34999999999998);
#222=VECTOR('',#768,1.34999999999998);
#223=VECTOR('',#773,10.);
#224=VECTOR('',#776,10.);
#225=VECTOR('',#779,10.);
#226=VECTOR('',#780,10.);
#227=VECTOR('',#781,10.);
#228=VECTOR('',#784,10.);
#229=VECTOR('',#785,10.);
#230=VECTOR('',#788,10.);
#231=VECTOR('',#789,10.);
#232=VECTOR('',#792,10.);
#233=VECTOR('',#795,10.);
#234=VECTOR('',#802,10.);
#235=VECTOR('',#803,10.);
#236=VECTOR('',#804,10.);
#237=VECTOR('',#807,10.);
#238=VECTOR('',#808,10.);
#239=VECTOR('',#809,10.);
#240=VECTOR('',#810,10.);
#241=VECTOR('',#813,10.);
#242=VECTOR('',#816,10.);
#243=B_SPLINE_CURVE_WITH_KNOTS('',3,(#825,#826,#827,#828,#829,#830,#831,
#832,#833,#834),.UNSPECIFIED.,.F.,.F.,(4,2,2,2,4),(2.84805784200671,2.86967234209791,
2.95070755435385,3.03174276660979,3.04417144260733),.UNSPECIFIED.);
#244=B_SPLINE_CURVE_WITH_KNOTS('',3,(#864,#865,#866,#867,#868,#869,#870,
#871,#872,#873,#874,#875),.UNSPECIFIED.,.F.,.F.,(4,2,2,2,2,4),(0.227117685356787,
0.244483187190868,0.325977582921158,0.398114506967348,0.470251431013538,
0.559521253227112),.UNSPECIFIED.);
#245=B_SPLINE_CURVE_WITH_KNOTS('',3,(#906,#907,#908,#909,#910,#911,#912,
#913,#914,#915),.UNSPECIFIED.,.F.,.F.,(4,2,2,2,4),(0.338498941989273,0.350927617986815,
0.431962830242756,0.512998042498697,0.534612542589896),.UNSPECIFIED.);
#246=B_SPLINE_CURVE_WITH_KNOTS('',3,(#918,#919,#920,#921,#922,#923,#924,
#925,#926,#927,#928,#929),.UNSPECIFIED.,.F.,.F.,(4,2,2,2,2,4),(2.4600082379137,
2.54927806016403,2.62141498421022,2.69355190825641,2.7750463039867,2.79241180582079),
 .UNSPECIFIED.);
#247=VERTEX_POINT('',#823);
#248=VERTEX_POINT('',#824);
#249=VERTEX_POINT('',#835);
#250=VERTEX_POINT('',#837);
#251=VERTEX_POINT('',#839);
#252=VERTEX_POINT('',#843);
#253=VERTEX_POINT('',#845);
#254=VERTEX_POINT('',#847);
#255=VERTEX_POINT('',#849);
#256=VERTEX_POINT('',#851);
#257=VERTEX_POINT('',#855);
#258=VERTEX_POINT('',#856);
#259=VERTEX_POINT('',#858);
#260=VERTEX_POINT('',#860);
#261=VERTEX_POINT('',#862);
#262=VERTEX_POINT('',#877);
#263=VERTEX_POINT('',#879);
#264=VERTEX_POINT('',#881);
#265=VERTEX_POINT('',#883);
#266=VERTEX_POINT('',#885);
#267=VERTEX_POINT('',#887);
#268=VERTEX_POINT('',#889);
#269=VERTEX_POINT('',#891);
#270=VERTEX_POINT('',#895);
#271=VERTEX_POINT('',#897);
#272=VERTEX_POINT('',#900);
#273=VERTEX_POINT('',#901);
#274=VERTEX_POINT('',#903);
#275=VERTEX_POINT('',#917);
#276=VERTEX_POINT('',#930);
#277=VERTEX_POINT('',#932);
#278=VERTEX_POINT('',#936);
#279=VERTEX_POINT('',#938);
#280=VERTEX_POINT('',#940);
#281=VERTEX_POINT('',#942);
#282=VERTEX_POINT('',#944);
#283=VERTEX_POINT('',#948);
#284=VERTEX_POINT('',#950);
#285=VERTEX_POINT('',#954);
#286=VERTEX_POINT('',#957);
#287=VERTEX_POINT('',#961);
#288=VERTEX_POINT('',#962);
#289=VERTEX_POINT('',#967);
#290=VERTEX_POINT('',#970);
#291=VERTEX_POINT('',#974);
#292=VERTEX_POINT('',#978);
#293=VERTEX_POINT('',#982);
#294=VERTEX_POINT('',#986);
#295=VERTEX_POINT('',#994);
#296=VERTEX_POINT('',#995);
#297=VERTEX_POINT('',#1000);
#298=VERTEX_POINT('',#1004);
#299=VERTEX_POINT('',#1014);
#300=VERTEX_POINT('',#1016);
#301=VERTEX_POINT('',#1021);
#302=VERTEX_POINT('',#1023);
#303=EDGE_CURVE('',#247,#248,#243,.F.);
#304=EDGE_CURVE('',#247,#249,#123,.T.);
#305=EDGE_CURVE('',#249,#250,#103,.T.);
#306=EDGE_CURVE('',#250,#251,#124,.T.);
#307=EDGE_CURVE('',#251,#248,#104,.T.);
#308=EDGE_CURVE('',#250,#252,#125,.F.);
#309=EDGE_CURVE('',#252,#253,#126,.T.);
#310=EDGE_CURVE('',#253,#254,#127,.F.);
#311=EDGE_CURVE('',#254,#255,#128,.T.);
#312=EDGE_CURVE('',#256,#255,#129,.T.);
#313=EDGE_CURVE('',#256,#251,#130,.T.);
#314=EDGE_CURVE('',#257,#258,#105,.F.);
#315=EDGE_CURVE('',#257,#259,#131,.T.);
#316=EDGE_CURVE('',#259,#260,#106,.T.);
#317=EDGE_CURVE('',#260,#261,#132,.T.);
#318=EDGE_CURVE('',#258,#261,#244,.F.);
#319=EDGE_CURVE('',#262,#247,#107,.T.);
#320=EDGE_CURVE('',#262,#263,#133,.T.);
#321=EDGE_CURVE('',#264,#263,#108,.T.);
#322=EDGE_CURVE('',#265,#264,#134,.T.);
#323=EDGE_CURVE('',#265,#266,#135,.T.);
#324=EDGE_CURVE('',#267,#266,#136,.T.);
#325=EDGE_CURVE('',#268,#267,#109,.T.);
#326=EDGE_CURVE('',#268,#269,#137,.T.);
#327=EDGE_CURVE('',#261,#269,#110,.T.);
#328=EDGE_CURVE('',#260,#249,#138,.T.);
#329=EDGE_CURVE('',#270,#270,#111,.T.);
#330=EDGE_CURVE('',#271,#271,#112,.T.);
#331=EDGE_CURVE('',#272,#273,#113,.F.);
#332=EDGE_CURVE('',#272,#274,#139,.T.);
#333=EDGE_CURVE('',#274,#265,#114,.T.);
#334=EDGE_CURVE('',#273,#264,#245,.F.);
#335=EDGE_CURVE('',#267,#275,#246,.F.);
#336=EDGE_CURVE('',#266,#276,#115,.T.);
#337=EDGE_CURVE('',#276,#277,#140,.T.);
#338=EDGE_CURVE('',#277,#275,#116,.T.);
#339=EDGE_CURVE('',#278,#276,#141,.T.);
#340=EDGE_CURVE('',#278,#279,#142,.T.);
#341=EDGE_CURVE('',#280,#279,#143,.T.);
#342=EDGE_CURVE('',#281,#280,#144,.T.);
#343=EDGE_CURVE('',#282,#281,#145,.T.);
#344=EDGE_CURVE('',#277,#282,#146,.T.);
#345=EDGE_CURVE('',#275,#283,#147,.F.);
#346=EDGE_CURVE('',#283,#284,#117,.T.);
#347=EDGE_CURVE('',#284,#268,#148,.T.);
#348=EDGE_CURVE('',#282,#285,#149,.T.);
#349=EDGE_CURVE('',#285,#272,#150,.T.);
#350=EDGE_CURVE('',#286,#273,#151,.T.);
#351=EDGE_CURVE('',#286,#283,#152,.F.);
#352=EDGE_CURVE('',#287,#288,#118,.T.);
#353=EDGE_CURVE('',#288,#258,#153,.T.);
#354=EDGE_CURVE('',#269,#287,#154,.T.);
#355=EDGE_CURVE('',#288,#289,#155,.T.);
#356=EDGE_CURVE('',#248,#289,#156,.F.);
#357=EDGE_CURVE('',#290,#256,#157,.T.);
#358=EDGE_CURVE('',#257,#290,#158,.T.);
#359=EDGE_CURVE('',#289,#291,#119,.T.);
#360=EDGE_CURVE('',#291,#262,#159,.T.);
#361=EDGE_CURVE('',#292,#286,#120,.T.);
#362=EDGE_CURVE('',#263,#292,#160,.T.);
#363=EDGE_CURVE('',#270,#293,#161,.T.);
#364=EDGE_CURVE('',#293,#293,#121,.T.);
#365=EDGE_CURVE('',#271,#294,#162,.T.);
#366=EDGE_CURVE('',#294,#294,#122,.T.);
#367=EDGE_CURVE('',#287,#284,#163,.T.);
#368=EDGE_CURVE('',#292,#291,#164,.T.);
#369=EDGE_CURVE('',#295,#296,#165,.T.);
#370=EDGE_CURVE('',#255,#295,#166,.T.);
#371=EDGE_CURVE('',#296,#254,#167,.T.);
#372=EDGE_CURVE('',#297,#253,#168,.F.);
#373=EDGE_CURVE('',#296,#297,#169,.F.);
#374=EDGE_CURVE('',#252,#298,#170,.T.);
#375=EDGE_CURVE('',#298,#297,#171,.T.);
#376=EDGE_CURVE('',#298,#259,#172,.F.);
#377=EDGE_CURVE('',#290,#295,#173,.T.);
#378=EDGE_CURVE('',#280,#299,#174,.F.);
#379=EDGE_CURVE('',#299,#300,#175,.T.);
#380=EDGE_CURVE('',#300,#281,#176,.T.);
#381=EDGE_CURVE('',#285,#300,#177,.T.);
#382=EDGE_CURVE('',#301,#299,#178,.T.);
#383=EDGE_CURVE('',#302,#301,#179,.T.);
#384=EDGE_CURVE('',#274,#302,#180,.T.);
#385=EDGE_CURVE('',#279,#301,#181,.T.);
#386=EDGE_CURVE('',#302,#278,#182,.F.);
#387=ORIENTED_EDGE('',*,*,#303,.F.);
#388=ORIENTED_EDGE('',*,*,#304,.T.);
#389=ORIENTED_EDGE('',*,*,#305,.T.);
#390=ORIENTED_EDGE('',*,*,#306,.T.);
#391=ORIENTED_EDGE('',*,*,#307,.T.);
#392=ORIENTED_EDGE('',*,*,#306,.F.);
#393=ORIENTED_EDGE('',*,*,#308,.T.);
#394=ORIENTED_EDGE('',*,*,#309,.T.);
#395=ORIENTED_EDGE('',*,*,#310,.T.);
#396=ORIENTED_EDGE('',*,*,#311,.T.);
#397=ORIENTED_EDGE('',*,*,#312,.F.);
#398=ORIENTED_EDGE('',*,*,#313,.T.);
#399=ORIENTED_EDGE('',*,*,#314,.F.);
#400=ORIENTED_EDGE('',*,*,#315,.T.);
#401=ORIENTED_EDGE('',*,*,#316,.T.);
#402=ORIENTED_EDGE('',*,*,#317,.T.);
#403=ORIENTED_EDGE('',*,*,#318,.F.);
#404=ORIENTED_EDGE('',*,*,#304,.F.);
#405=ORIENTED_EDGE('',*,*,#319,.F.);
#406=ORIENTED_EDGE('',*,*,#320,.T.);
#407=ORIENTED_EDGE('',*,*,#321,.F.);
#408=ORIENTED_EDGE('',*,*,#322,.F.);
#409=ORIENTED_EDGE('',*,*,#323,.T.);
#410=ORIENTED_EDGE('',*,*,#324,.F.);
#411=ORIENTED_EDGE('',*,*,#325,.F.);
#412=ORIENTED_EDGE('',*,*,#326,.T.);
#413=ORIENTED_EDGE('',*,*,#327,.F.);
#414=ORIENTED_EDGE('',*,*,#317,.F.);
#415=ORIENTED_EDGE('',*,*,#328,.T.);
#416=ORIENTED_EDGE('',*,*,#329,.T.);
#417=ORIENTED_EDGE('',*,*,#330,.T.);
#418=ORIENTED_EDGE('',*,*,#331,.F.);
#419=ORIENTED_EDGE('',*,*,#332,.T.);
#420=ORIENTED_EDGE('',*,*,#333,.T.);
#421=ORIENTED_EDGE('',*,*,#322,.T.);
#422=ORIENTED_EDGE('',*,*,#334,.F.);
#423=ORIENTED_EDGE('',*,*,#335,.F.);
#424=ORIENTED_EDGE('',*,*,#324,.T.);
#425=ORIENTED_EDGE('',*,*,#336,.T.);
#426=ORIENTED_EDGE('',*,*,#337,.T.);
#427=ORIENTED_EDGE('',*,*,#338,.T.);
#428=ORIENTED_EDGE('',*,*,#337,.F.);
#429=ORIENTED_EDGE('',*,*,#339,.F.);
#430=ORIENTED_EDGE('',*,*,#340,.T.);
#431=ORIENTED_EDGE('',*,*,#341,.F.);
#432=ORIENTED_EDGE('',*,*,#342,.F.);
#433=ORIENTED_EDGE('',*,*,#343,.F.);
#434=ORIENTED_EDGE('',*,*,#344,.F.);
#435=ORIENTED_EDGE('',*,*,#325,.T.);
#436=ORIENTED_EDGE('',*,*,#335,.T.);
#437=ORIENTED_EDGE('',*,*,#345,.T.);
#438=ORIENTED_EDGE('',*,*,#346,.T.);
#439=ORIENTED_EDGE('',*,*,#347,.T.);
#440=ORIENTED_EDGE('',*,*,#345,.F.);
#441=ORIENTED_EDGE('',*,*,#338,.F.);
#442=ORIENTED_EDGE('',*,*,#344,.T.);
#443=ORIENTED_EDGE('',*,*,#348,.T.);
#444=ORIENTED_EDGE('',*,*,#349,.T.);
#445=ORIENTED_EDGE('',*,*,#331,.T.);
#446=ORIENTED_EDGE('',*,*,#350,.F.);
#447=ORIENTED_EDGE('',*,*,#351,.T.);
#448=ORIENTED_EDGE('',*,*,#352,.T.);
#449=ORIENTED_EDGE('',*,*,#353,.T.);
#450=ORIENTED_EDGE('',*,*,#318,.T.);
#451=ORIENTED_EDGE('',*,*,#327,.T.);
#452=ORIENTED_EDGE('',*,*,#354,.T.);
#453=ORIENTED_EDGE('',*,*,#353,.F.);
#454=ORIENTED_EDGE('',*,*,#355,.T.);
#455=ORIENTED_EDGE('',*,*,#356,.F.);
#456=ORIENTED_EDGE('',*,*,#307,.F.);
#457=ORIENTED_EDGE('',*,*,#313,.F.);
#458=ORIENTED_EDGE('',*,*,#357,.F.);
#459=ORIENTED_EDGE('',*,*,#358,.F.);
#460=ORIENTED_EDGE('',*,*,#314,.T.);
#461=ORIENTED_EDGE('',*,*,#319,.T.);
#462=ORIENTED_EDGE('',*,*,#303,.T.);
#463=ORIENTED_EDGE('',*,*,#356,.T.);
#464=ORIENTED_EDGE('',*,*,#359,.T.);
#465=ORIENTED_EDGE('',*,*,#360,.T.);
#466=ORIENTED_EDGE('',*,*,#361,.T.);
#467=ORIENTED_EDGE('',*,*,#350,.T.);
#468=ORIENTED_EDGE('',*,*,#334,.T.);
#469=ORIENTED_EDGE('',*,*,#321,.T.);
#470=ORIENTED_EDGE('',*,*,#362,.T.);
#471=ORIENTED_EDGE('',*,*,#329,.F.);
#472=ORIENTED_EDGE('',*,*,#363,.T.);
#473=ORIENTED_EDGE('',*,*,#364,.F.);
#474=ORIENTED_EDGE('',*,*,#363,.F.);
#475=ORIENTED_EDGE('',*,*,#330,.F.);
#476=ORIENTED_EDGE('',*,*,#365,.T.);
#477=ORIENTED_EDGE('',*,*,#366,.F.);
#478=ORIENTED_EDGE('',*,*,#365,.F.);
#479=ORIENTED_EDGE('',*,*,#347,.F.);
#480=ORIENTED_EDGE('',*,*,#367,.F.);
#481=ORIENTED_EDGE('',*,*,#354,.F.);
#482=ORIENTED_EDGE('',*,*,#326,.F.);
#483=ORIENTED_EDGE('',*,*,#360,.F.);
#484=ORIENTED_EDGE('',*,*,#368,.F.);
#485=ORIENTED_EDGE('',*,*,#362,.F.);
#486=ORIENTED_EDGE('',*,*,#320,.F.);
#487=ORIENTED_EDGE('',*,*,#369,.F.);
#488=ORIENTED_EDGE('',*,*,#370,.F.);
#489=ORIENTED_EDGE('',*,*,#311,.F.);
#490=ORIENTED_EDGE('',*,*,#371,.F.);
#491=ORIENTED_EDGE('',*,*,#371,.T.);
#492=ORIENTED_EDGE('',*,*,#310,.F.);
#493=ORIENTED_EDGE('',*,*,#372,.F.);
#494=ORIENTED_EDGE('',*,*,#373,.F.);
#495=ORIENTED_EDGE('',*,*,#374,.T.);
#496=ORIENTED_EDGE('',*,*,#375,.T.);
#497=ORIENTED_EDGE('',*,*,#372,.T.);
#498=ORIENTED_EDGE('',*,*,#309,.F.);
#499=ORIENTED_EDGE('',*,*,#374,.F.);
#500=ORIENTED_EDGE('',*,*,#308,.F.);
#501=ORIENTED_EDGE('',*,*,#305,.F.);
#502=ORIENTED_EDGE('',*,*,#328,.F.);
#503=ORIENTED_EDGE('',*,*,#316,.F.);
#504=ORIENTED_EDGE('',*,*,#376,.F.);
#505=ORIENTED_EDGE('',*,*,#315,.F.);
#506=ORIENTED_EDGE('',*,*,#358,.T.);
#507=ORIENTED_EDGE('',*,*,#377,.T.);
#508=ORIENTED_EDGE('',*,*,#369,.T.);
#509=ORIENTED_EDGE('',*,*,#373,.T.);
#510=ORIENTED_EDGE('',*,*,#375,.F.);
#511=ORIENTED_EDGE('',*,*,#376,.T.);
#512=ORIENTED_EDGE('',*,*,#370,.T.);
#513=ORIENTED_EDGE('',*,*,#377,.F.);
#514=ORIENTED_EDGE('',*,*,#357,.T.);
#515=ORIENTED_EDGE('',*,*,#312,.T.);
#516=ORIENTED_EDGE('',*,*,#346,.F.);
#517=ORIENTED_EDGE('',*,*,#351,.F.);
#518=ORIENTED_EDGE('',*,*,#361,.F.);
#519=ORIENTED_EDGE('',*,*,#368,.T.);
#520=ORIENTED_EDGE('',*,*,#359,.F.);
#521=ORIENTED_EDGE('',*,*,#355,.F.);
#522=ORIENTED_EDGE('',*,*,#352,.F.);
#523=ORIENTED_EDGE('',*,*,#367,.T.);
#524=ORIENTED_EDGE('',*,*,#364,.T.);
#525=ORIENTED_EDGE('',*,*,#366,.T.);
#526=ORIENTED_EDGE('',*,*,#342,.T.);
#527=ORIENTED_EDGE('',*,*,#378,.T.);
#528=ORIENTED_EDGE('',*,*,#379,.T.);
#529=ORIENTED_EDGE('',*,*,#380,.T.);
#530=ORIENTED_EDGE('',*,*,#332,.F.);
#531=ORIENTED_EDGE('',*,*,#349,.F.);
#532=ORIENTED_EDGE('',*,*,#381,.T.);
#533=ORIENTED_EDGE('',*,*,#379,.F.);
#534=ORIENTED_EDGE('',*,*,#382,.F.);
#535=ORIENTED_EDGE('',*,*,#383,.F.);
#536=ORIENTED_EDGE('',*,*,#384,.F.);
#537=ORIENTED_EDGE('',*,*,#378,.F.);
#538=ORIENTED_EDGE('',*,*,#341,.T.);
#539=ORIENTED_EDGE('',*,*,#385,.T.);
#540=ORIENTED_EDGE('',*,*,#382,.T.);
#541=ORIENTED_EDGE('',*,*,#386,.F.);
#542=ORIENTED_EDGE('',*,*,#383,.T.);
#543=ORIENTED_EDGE('',*,*,#385,.F.);
#544=ORIENTED_EDGE('',*,*,#340,.F.);
#545=ORIENTED_EDGE('',*,*,#386,.T.);
#546=ORIENTED_EDGE('',*,*,#339,.T.);
#547=ORIENTED_EDGE('',*,*,#336,.F.);
#548=ORIENTED_EDGE('',*,*,#323,.F.);
#549=ORIENTED_EDGE('',*,*,#333,.F.);
#550=ORIENTED_EDGE('',*,*,#384,.T.);
#551=ORIENTED_EDGE('',*,*,#380,.F.);
#552=ORIENTED_EDGE('',*,*,#381,.F.);
#553=ORIENTED_EDGE('',*,*,#348,.F.);
#554=ORIENTED_EDGE('',*,*,#343,.T.);
#555=CYLINDRICAL_SURFACE('',#609,3.234);
#556=CYLINDRICAL_SURFACE('',#613,3.234);
#557=CYLINDRICAL_SURFACE('',#623,3.234);
#558=CYLINDRICAL_SURFACE('',#626,3.234);
#559=CYLINDRICAL_SURFACE('',#630,3.39);
#560=CYLINDRICAL_SURFACE('',#633,3.39);
#561=CYLINDRICAL_SURFACE('',#636,3.39);
#562=CYLINDRICAL_SURFACE('',#638,3.39);
#563=CYLINDRICAL_SURFACE('',#640,1.34999999999998);
#564=CYLINDRICAL_SURFACE('',#642,1.34999999999998);
#565=ADVANCED_FACE('',(#39),#555,.F.);
#566=ADVANCED_FACE('',(#40),#19,.F.);
#567=ADVANCED_FACE('',(#41),#556,.F.);
#568=ADVANCED_FACE('',(#42,#15,#16),#20,.T.);
#569=ADVANCED_FACE('',(#43),#557,.F.);
#570=ADVANCED_FACE('',(#44),#558,.F.);
#571=ADVANCED_FACE('',(#45),#21,.T.);
#572=ADVANCED_FACE('',(#46),#559,.T.);
#573=ADVANCED_FACE('',(#47),#22,.T.);
#574=ADVANCED_FACE('',(#48),#560,.T.);
#575=ADVANCED_FACE('',(#49),#23,.F.);
#576=ADVANCED_FACE('',(#50),#561,.T.);
#577=ADVANCED_FACE('',(#51),#562,.T.);
#578=ADVANCED_FACE('',(#52),#563,.F.);
#579=ADVANCED_FACE('',(#53),#564,.F.);
#580=ADVANCED_FACE('',(#54),#24,.F.);
#581=ADVANCED_FACE('',(#55),#25,.F.);
#582=ADVANCED_FACE('',(#56),#26,.F.);
#583=ADVANCED_FACE('',(#57),#27,.F.);
#584=ADVANCED_FACE('',(#58),#28,.F.);
#585=ADVANCED_FACE('',(#59),#29,.F.);
#586=ADVANCED_FACE('',(#60),#30,.F.);
#587=ADVANCED_FACE('',(#61),#31,.F.);
#588=ADVANCED_FACE('',(#62,#17,#18),#32,.T.);
#589=ADVANCED_FACE('',(#63),#33,.T.);
#590=ADVANCED_FACE('',(#64),#34,.T.);
#591=ADVANCED_FACE('',(#65),#35,.T.);
#592=ADVANCED_FACE('',(#66),#36,.T.);
#593=ADVANCED_FACE('',(#67),#37,.T.);
#594=ADVANCED_FACE('',(#68),#38,.T.);
#595=CLOSED_SHELL('',(#565,#566,#567,#568,#569,#570,#571,#572,#573,#574,
#575,#576,#577,#578,#579,#580,#581,#582,#583,#584,#585,#586,#587,#588,#589,
#590,#591,#592,#593,#594));
#596=DERIVED_UNIT_ELEMENT(#598,1.);
#597=DERIVED_UNIT_ELEMENT(#1037,-3.);
#598=(
MASS_UNIT()
NAMED_UNIT(*)
SI_UNIT(.KILO.,.GRAM.)
);
#599=DERIVED_UNIT((#596,#597));
#600=MEASURE_REPRESENTATION_ITEM('density measure',
POSITIVE_RATIO_MEASURE(7850.),#599);
#601=PROPERTY_DEFINITION_REPRESENTATION(#606,#603);
#602=PROPERTY_DEFINITION_REPRESENTATION(#607,#604);
#603=REPRESENTATION('material name',(#605),#1034);
#604=REPRESENTATION('density',(#600),#1034);
#605=DESCRIPTIVE_REPRESENTATION_ITEM('Steel','Steel');
#606=PROPERTY_DEFINITION('material property','material name',#1044);
#607=PROPERTY_DEFINITION('material property','density of part',#1044);
#608=AXIS2_PLACEMENT_3D('',#821,#659,#660);
#609=AXIS2_PLACEMENT_3D('',#822,#661,#662);
#610=AXIS2_PLACEMENT_3D('',#838,#664,#665);
#611=AXIS2_PLACEMENT_3D('',#841,#667,#668);
#612=AXIS2_PLACEMENT_3D('',#842,#669,#670);
#613=AXIS2_PLACEMENT_3D('',#854,#677,#678);
#614=AXIS2_PLACEMENT_3D('',#857,#679,#680);
#615=AXIS2_PLACEMENT_3D('',#861,#682,#683);
#616=AXIS2_PLACEMENT_3D('',#876,#685,#686);
#617=AXIS2_PLACEMENT_3D('',#878,#687,#688);
#618=AXIS2_PLACEMENT_3D('',#882,#690,#691);
#619=AXIS2_PLACEMENT_3D('',#890,#695,#696);
#620=AXIS2_PLACEMENT_3D('',#893,#698,#699);
#621=AXIS2_PLACEMENT_3D('',#896,#701,#702);
#622=AXIS2_PLACEMENT_3D('',#898,#703,#704);
#623=AXIS2_PLACEMENT_3D('',#899,#705,#706);
#624=AXIS2_PLACEMENT_3D('',#902,#707,#708);
#625=AXIS2_PLACEMENT_3D('',#905,#710,#711);
#626=AXIS2_PLACEMENT_3D('',#916,#712,#713);
#627=AXIS2_PLACEMENT_3D('',#931,#714,#715);
#628=AXIS2_PLACEMENT_3D('',#934,#717,#718);
#629=AXIS2_PLACEMENT_3D('',#935,#719,#720);
#630=AXIS2_PLACEMENT_3D('',#947,#727,#728);
#631=AXIS2_PLACEMENT_3D('',#951,#730,#731);
#632=AXIS2_PLACEMENT_3D('',#953,#733,#734);
#633=AXIS2_PLACEMENT_3D('',#960,#739,#740);
#634=AXIS2_PLACEMENT_3D('',#963,#741,#742);
#635=AXIS2_PLACEMENT_3D('',#966,#745,#746);
#636=AXIS2_PLACEMENT_3D('',#973,#751,#752);
#637=AXIS2_PLACEMENT_3D('',#975,#753,#754);
#638=AXIS2_PLACEMENT_3D('',#977,#756,#757);
#639=AXIS2_PLACEMENT_3D('',#979,#758,#759);
#640=AXIS2_PLACEMENT_3D('',#981,#761,#762);
#641=AXIS2_PLACEMENT_3D('',#984,#764,#765);
#642=AXIS2_PLACEMENT_3D('',#985,#766,#767);
#643=AXIS2_PLACEMENT_3D('',#988,#769,#770);
#644=AXIS2_PLACEMENT_3D('',#989,#771,#772);
#645=AXIS2_PLACEMENT_3D('',#991,#774,#775);
#646=AXIS2_PLACEMENT_3D('',#993,#777,#778);
#647=AXIS2_PLACEMENT_3D('',#999,#782,#783);
#648=AXIS2_PLACEMENT_3D('',#1003,#786,#787);
#649=AXIS2_PLACEMENT_3D('',#1007,#790,#791);
#650=AXIS2_PLACEMENT_3D('',#1009,#793,#794);
#651=AXIS2_PLACEMENT_3D('',#1011,#796,#797);
#652=AXIS2_PLACEMENT_3D('',#1012,#798,#799);
#653=AXIS2_PLACEMENT_3D('',#1013,#800,#801);
#654=AXIS2_PLACEMENT_3D('',#1019,#805,#806);
#655=AXIS2_PLACEMENT_3D('',#1026,#811,#812);
#656=AXIS2_PLACEMENT_3D('',#1028,#814,#815);
#657=AXIS2_PLACEMENT_3D('',#1030,#817,#818);
#658=AXIS2_PLACEMENT_3D('',#1031,#819,#820);
#659=DIRECTION('axis',(0.,0.,1.));
#660=DIRECTION('refdir',(1.,0.,0.));
#661=DIRECTION('center_axis',(0.,0.,-1.));
#662=DIRECTION('ref_axis',(-0.707106781186547,0.707106781186548,0.));
#663=DIRECTION('',(0.,0.,1.));
#664=DIRECTION('center_axis',(0.,0.,1.));
#665=DIRECTION('ref_axis',(-0.707106781186547,0.707106781186548,0.));
#666=DIRECTION('',(0.,0.,-1.));
#667=DIRECTION('center_axis',(0.,0.,-1.));
#668=DIRECTION('ref_axis',(-0.707106781186547,0.707106781186548,0.));
#669=DIRECTION('center_axis',(-1.,0.,0.));
#670=DIRECTION('ref_axis',(0.,-1.,0.));
#671=DIRECTION('',(0.,1.,0.));
#672=DIRECTION('',(0.,0.,1.));
#673=DIRECTION('',(0.,1.,0.));
#674=DIRECTION('',(0.,-0.707106781186548,-0.707106781186547));
#675=DIRECTION('',(0.,0.,1.));
#676=DIRECTION('',(0.,1.,0.));
#677=DIRECTION('center_axis',(0.,0.,1.));
#678=DIRECTION('ref_axis',(0.707106781186547,0.707106781186548,0.));
#679=DIRECTION('center_axis',(0.,0.,-1.));
#680=DIRECTION('ref_axis',(0.707106781186547,0.707106781186548,0.));
#681=DIRECTION('',(0.,0.,1.));
#682=DIRECTION('center_axis',(0.,0.,1.));
#683=DIRECTION('ref_axis',(0.707106781186547,0.707106781186548,0.));
#684=DIRECTION('',(0.,0.,-1.));
#685=DIRECTION('center_axis',(0.,-1.,0.));
#686=DIRECTION('ref_axis',(1.,0.,0.));
#687=DIRECTION('center_axis',(0.,1.,0.));
#688=DIRECTION('ref_axis',(0.707106781186545,0.,-0.70710678118655));
#689=DIRECTION('',(0.,0.,1.));
#690=DIRECTION('center_axis',(0.,1.,0.));
#691=DIRECTION('ref_axis',(0.707106781186548,0.,0.707106781186548));
#692=DIRECTION('',(0.,0.,1.));
#693=DIRECTION('',(-1.,0.,0.));
#694=DIRECTION('',(0.,0.,-1.));
#695=DIRECTION('center_axis',(0.,1.,0.));
#696=DIRECTION('ref_axis',(-0.707106781186547,0.,0.707106781186547));
#697=DIRECTION('',(0.,0.,-1.));
#698=DIRECTION('center_axis',(0.,1.,0.));
#699=DIRECTION('ref_axis',(-0.70710678118655,0.,-0.707106781186545));
#700=DIRECTION('',(1.,0.,0.));
#701=DIRECTION('center_axis',(0.,1.,0.));
#702=DIRECTION('ref_axis',(1.,0.,-1.2896324929489E-44));
#703=DIRECTION('center_axis',(0.,1.,0.));
#704=DIRECTION('ref_axis',(1.,0.,-1.2896324929489E-44));
#705=DIRECTION('center_axis',(0.,0.,-1.));
#706=DIRECTION('ref_axis',(-0.707106781186547,0.707106781186548,0.));
#707=DIRECTION('center_axis',(0.,0.,1.));
#708=DIRECTION('ref_axis',(-0.707106781186547,0.707106781186548,0.));
#709=DIRECTION('',(0.,0.,-1.));
#710=DIRECTION('center_axis',(0.,0.,-1.));
#711=DIRECTION('ref_axis',(-0.707106781186547,0.707106781186548,0.));
#712=DIRECTION('center_axis',(0.,0.,1.));
#713=DIRECTION('ref_axis',(0.707106781186547,0.707106781186548,0.));
#714=DIRECTION('center_axis',(0.,0.,-1.));
#715=DIRECTION('ref_axis',(0.707106781186547,0.707106781186548,0.));
#716=DIRECTION('',(0.,0.,1.));
#717=DIRECTION('center_axis',(0.,0.,1.));
#718=DIRECTION('ref_axis',(0.707106781186547,0.707106781186548,0.));
#719=DIRECTION('center_axis',(-1.,0.,0.));
#720=DIRECTION('ref_axis',(0.,1.,0.));
#721=DIRECTION('',(0.,1.,0.));
#722=DIRECTION('',(0.,0.,-1.));
#723=DIRECTION('',(0.,1.,0.));
#724=DIRECTION('',(0.,0.707106781186548,-0.707106781186547));
#725=DIRECTION('',(0.,0.,-1.));
#726=DIRECTION('',(0.,-1.,0.));
#727=DIRECTION('center_axis',(0.,-1.,0.));
#728=DIRECTION('ref_axis',(-0.707106781186547,0.,0.707106781186547));
#729=DIRECTION('',(0.,-1.,0.));
#730=DIRECTION('center_axis',(0.,-1.,0.));
#731=DIRECTION('ref_axis',(-0.707106781186547,0.,0.707106781186547));
#732=DIRECTION('',(0.,-1.,0.));
#733=DIRECTION('center_axis',(0.,0.,1.));
#734=DIRECTION('ref_axis',(1.,0.,0.));
#735=DIRECTION('',(1.,0.,0.));
#736=DIRECTION('',(0.,1.,0.));
#737=DIRECTION('',(0.,-1.,0.));
#738=DIRECTION('',(1.,0.,0.));
#739=DIRECTION('center_axis',(0.,1.,0.));
#740=DIRECTION('ref_axis',(-0.70710678118655,0.,-0.707106781186545));
#741=DIRECTION('center_axis',(0.,-1.,0.));
#742=DIRECTION('ref_axis',(-0.70710678118655,0.,-0.707106781186545));
#743=DIRECTION('',(0.,-1.,0.));
#744=DIRECTION('',(0.,1.,0.));
#745=DIRECTION('center_axis',(0.,0.,1.));
#746=DIRECTION('ref_axis',(1.,0.,0.));
#747=DIRECTION('',(1.,0.,0.));
#748=DIRECTION('',(0.,-1.,0.));
#749=DIRECTION('',(1.,0.,0.));
#750=DIRECTION('',(0.,-1.,0.));
#751=DIRECTION('center_axis',(0.,-1.,0.));
#752=DIRECTION('ref_axis',(0.707106781186545,0.,-0.70710678118655));
#753=DIRECTION('center_axis',(0.,-1.,0.));
#754=DIRECTION('ref_axis',(0.707106781186545,0.,-0.70710678118655));
#755=DIRECTION('',(0.,-1.,0.));
#756=DIRECTION('center_axis',(0.,1.,0.));
#757=DIRECTION('ref_axis',(0.707106781186548,0.,0.707106781186548));
#758=DIRECTION('center_axis',(0.,-1.,0.));
#759=DIRECTION('ref_axis',(0.707106781186548,0.,0.707106781186548));
#760=DIRECTION('',(0.,1.,0.));
#761=DIRECTION('center_axis',(0.,1.,0.));
#762=DIRECTION('ref_axis',(1.,0.,-1.2896324929489E-44));
#763=DIRECTION('',(0.,1.,0.));
#764=DIRECTION('center_axis',(0.,-1.,0.));
#765=DIRECTION('ref_axis',(1.,0.,-1.2896324929489E-44));
#766=DIRECTION('center_axis',(0.,1.,0.));
#767=DIRECTION('ref_axis',(1.,0.,-1.2896324929489E-44));
#768=DIRECTION('',(0.,1.,0.));
#769=DIRECTION('center_axis',(0.,-1.,0.));
#770=DIRECTION('ref_axis',(1.,0.,-1.2896324929489E-44));
#771=DIRECTION('center_axis',(1.,0.,0.));
#772=DIRECTION('ref_axis',(0.,0.,1.));
#773=DIRECTION('',(0.,0.,1.));
#774=DIRECTION('center_axis',(-1.,0.,0.));
#775=DIRECTION('ref_axis',(0.,0.,-1.));
#776=DIRECTION('',(0.,0.,-1.));
#777=DIRECTION('center_axis',(0.,0.707106781186547,-0.707106781186548));
#778=DIRECTION('ref_axis',(-1.,0.,0.));
#779=DIRECTION('',(0.,0.707106781186548,0.707106781186547));
#780=DIRECTION('',(-1.,0.,0.));
#781=DIRECTION('',(1.,0.,0.));
#782=DIRECTION('center_axis',(0.,0.,-1.));
#783=DIRECTION('ref_axis',(-1.,0.,0.));
#784=DIRECTION('',(-1.,0.,0.));
#785=DIRECTION('',(0.,-1.,0.));
#786=DIRECTION('center_axis',(0.,-1.,0.));
#787=DIRECTION('ref_axis',(1.,0.,0.));
#788=DIRECTION('',(-1.,0.,0.));
#789=DIRECTION('',(0.,0.,1.));
#790=DIRECTION('center_axis',(0.,0.,-1.));
#791=DIRECTION('ref_axis',(-1.,0.,0.));
#792=DIRECTION('',(0.,-1.,0.));
#793=DIRECTION('center_axis',(1.,0.,0.));
#794=DIRECTION('ref_axis',(0.,1.,0.));
#795=DIRECTION('',(0.,0.,1.));
#796=DIRECTION('center_axis',(0.,1.,0.));
#797=DIRECTION('ref_axis',(-1.,0.,0.));
#798=DIRECTION('center_axis',(0.,1.,0.));
#799=DIRECTION('ref_axis',(-1.,0.,0.));
#800=DIRECTION('center_axis',(0.,-0.707106781186547,-0.707106781186548));
#801=DIRECTION('ref_axis',(-1.,0.,0.));
#802=DIRECTION('',(-1.,0.,0.));
#803=DIRECTION('',(0.,-0.707106781186548,0.707106781186547));
#804=DIRECTION('',(-1.,0.,0.));
#805=DIRECTION('center_axis',(1.,0.,0.));
#806=DIRECTION('ref_axis',(0.,-1.,0.));
#807=DIRECTION('',(0.,0.,-1.));
#808=DIRECTION('',(0.,-1.,0.));
#809=DIRECTION('',(0.,0.,-1.));
#810=DIRECTION('',(0.,-1.,0.));
#811=DIRECTION('center_axis',(0.,0.,-1.));
#812=DIRECTION('ref_axis',(-1.,0.,0.));
#813=DIRECTION('',(1.,0.,0.));
#814=DIRECTION('center_axis',(0.,1.,0.));
#815=DIRECTION('ref_axis',(1.,0.,0.));
#816=DIRECTION('',(1.,0.,0.));
#817=DIRECTION('center_axis',(0.,0.,-1.));
#818=DIRECTION('ref_axis',(-1.,0.,0.));
#819=DIRECTION('center_axis',(0.,-1.,0.));
#820=DIRECTION('ref_axis',(-1.,0.,0.));
#821=CARTESIAN_POINT('',(0.,0.,0.));
#822=CARTESIAN_POINT('Origin',(-97.766001505017,26.7660004768372,-2.));
#823=CARTESIAN_POINT('',(-97.766001505017,30.0000004768372,-2.96645106967306));
#824=CARTESIAN_POINT('',(-99.5915938161762,29.4354514903297,-3.5));
#825=CARTESIAN_POINT('Ctrl Pts',(-99.5915938161762,29.4354514903297,-3.49999999999999));
#826=CARTESIAN_POINT('Ctrl Pts',(-99.5319704475311,29.4762269017585,-3.49999999999999));
#827=CARTESIAN_POINT('Ctrl Pts',(-99.4710769795639,29.5149372564601,-3.4984258275359));
#828=CARTESIAN_POINT('Ctrl Pts',(-99.1766807258538,29.6885929092948,-3.48255347261904));
#829=CARTESIAN_POINT('Ctrl Pts',(-98.9088085619164,29.8041431667546,-3.44225639255298));
#830=CARTESIAN_POINT('Ctrl Pts',(-98.3725659856787,29.9547930863726,-3.28554715324078));
#831=CARTESIAN_POINT('Ctrl Pts',(-98.1046163857549,29.9906397887383,-3.16841517273497));
#832=CARTESIAN_POINT('Ctrl Pts',(-97.8362379801042,29.999434854738,-3.01043804904087));
#833=CARTESIAN_POINT('Ctrl Pts',(-97.8009209476076,30.0000004768372,-2.98876850636227));
#834=CARTESIAN_POINT('Ctrl Pts',(-97.7660015050172,30.0000004768372,-2.96645106967317));
#835=CARTESIAN_POINT('',(-97.766001505017,30.0000004768372,-0.999999999999989));
#836=CARTESIAN_POINT('',(-97.766001505017,30.0000004768372,-2.));
#837=CARTESIAN_POINT('',(-101.000001505017,26.7660004768372,-0.999999999999989));
#838=CARTESIAN_POINT('Origin',(-97.766001505017,26.7660004768372,-0.999999999999989));
#839=CARTESIAN_POINT('',(-101.000001505017,26.7660004768372,-3.5));
#840=CARTESIAN_POINT('',(-101.000001505017,26.7660004768372,-2.));
#841=CARTESIAN_POINT('Origin',(-97.766001505017,26.7660004768372,-3.5));
#842=CARTESIAN_POINT('Origin',(-101.000001505017,32.0000004768372,-3.5));
#843=CARTESIAN_POINT('',(-101.000001505017,25.4,-0.999999999999989));
#844=CARTESIAN_POINT('',(-101.000001505017,29.0000004321337,-0.999999999999989));
#845=CARTESIAN_POINT('',(-101.000001505017,25.4,1.10000000000002));
#846=CARTESIAN_POINT('',(-101.000001505017,25.4,-0.499999999999989));
#847=CARTESIAN_POINT('',(-101.000001505017,23.6040002980232,1.10000000000002));
#848=CARTESIAN_POINT('',(-101.000001505017,27.3500003129244,1.10000000000002));
#849=CARTESIAN_POINT('',(-101.000001505017,20.0000002980232,-2.50399999999997));
#850=CARTESIAN_POINT('',(-101.000001505017,24.0020003427267,1.4980000447035));
#851=CARTESIAN_POINT('',(-101.000001505017,20.0000002980232,-3.5));
#852=CARTESIAN_POINT('',(-101.000001505017,20.0000002980232,-3.5));
#853=CARTESIAN_POINT('',(-101.000001505017,20.0000002980232,-3.5));
#854=CARTESIAN_POINT('Origin',(-129.234001877546,26.7660004768372,-2.));
#855=CARTESIAN_POINT('',(-126.000001877546,26.7660004768372,-3.5));
#856=CARTESIAN_POINT('',(-126.610000000223,28.6563364649101,-3.5));
#857=CARTESIAN_POINT('Origin',(-129.234001877546,26.7660004768372,-3.5));
#858=CARTESIAN_POINT('',(-126.000001877546,26.7660004768372,-0.999999999999989));
#859=CARTESIAN_POINT('',(-126.000001877546,26.7660004768372,-2.));
#860=CARTESIAN_POINT('',(-129.234001877546,30.0000004768372,-0.999999999999989));
#861=CARTESIAN_POINT('Origin',(-129.234001877546,26.7660004768372,-0.999999999999989));
#862=CARTESIAN_POINT('',(-129.234001877546,30.0000004768372,-2.25632573171805));
#863=CARTESIAN_POINT('',(-129.234001877546,30.0000004768372,-2.));
#864=CARTESIAN_POINT('Ctrl Pts',(-129.234001877546,30.0000004768372,-2.25632573171804));
#865=CARTESIAN_POINT('Ctrl Pts',(-129.196560181276,30.0000004768372,-2.30210027556276));
#866=CARTESIAN_POINT('Ctrl Pts',(-129.157988673199,29.999350030052,-2.34681064655598));
#867=CARTESIAN_POINT('Ctrl Pts',(-128.932465986838,29.9912815637653,-2.59488058048319));
#868=CARTESIAN_POINT('Ctrl Pts',(-128.72325053675,29.9674879633996,-2.7740981467621));
#869=CARTESIAN_POINT('Ctrl Pts',(-128.30600344946,29.8705183704895,-3.05472722924466));
#870=CARTESIAN_POINT('Ctrl Pts',(-128.082765071232,29.7979739530977,-3.17259940905986));
#871=CARTESIAN_POINT('Ctrl Pts',(-127.641166076549,29.5910816806875,-3.34809331532939));
#872=CARTESIAN_POINT('Ctrl Pts',(-127.423375875602,29.4561625791402,-3.40647518807897));
#873=CARTESIAN_POINT('Ctrl Pts',(-127.004822726106,29.127391608858,-3.48515877745858));
#874=CARTESIAN_POINT('Ctrl Pts',(-126.790162312759,28.9064222958422,-3.49999999998814));
#875=CARTESIAN_POINT('Ctrl Pts',(-126.610000000223,28.6563364649108,-3.5));
#876=CARTESIAN_POINT('Origin',(-150.733661647162,30.0000004768372,-0.5));
#877=CARTESIAN_POINT('',(-96.2015938161762,30.0000004768372,-0.109999999999992));
#878=CARTESIAN_POINT('Origin',(-99.5915938161762,30.0000004768372,-0.109999999999992));
#879=CARTESIAN_POINT('',(-96.2015938161762,30.0000004768372,114.11));
#880=CARTESIAN_POINT('',(-96.2015938161762,30.0000004768372,60.7402787896298));
#881=CARTESIAN_POINT('',(-97.766001505017,30.0000004768372,116.966451069673));
#882=CARTESIAN_POINT('Origin',(-99.5915938161762,30.0000004768372,114.11));
#883=CARTESIAN_POINT('',(-97.766001505017,30.0000004768372,115.));
#884=CARTESIAN_POINT('',(-97.766001505017,30.0000004768372,58.5));
#885=CARTESIAN_POINT('',(-129.234001877546,30.0000004768372,115.));
#886=CARTESIAN_POINT('',(-132.116831669222,30.0000004768372,115.));
#887=CARTESIAN_POINT('',(-129.234001877546,30.0000004768372,116.256325731718));
#888=CARTESIAN_POINT('',(-129.234001877546,30.0000004768372,58.5));
#889=CARTESIAN_POINT('',(-130.,30.0000004768372,114.11));
#890=CARTESIAN_POINT('Origin',(-126.61,30.0000004768372,114.11));
#891=CARTESIAN_POINT('',(-130.,30.0000004768372,-0.110000000000001));
#892=CARTESIAN_POINT('',(-130.,30.0000004768372,-12.75));
#893=CARTESIAN_POINT('Origin',(-126.61,30.0000004768372,-0.110000000000001));
#894=CARTESIAN_POINT('',(-132.116831669222,30.0000004768372,-0.999999999999989));
#895=CARTESIAN_POINT('',(-106.673618891086,30.0000004768372,21.711617792139));
#896=CARTESIAN_POINT('Origin',(-105.323618891086,30.0000004768372,21.711617792139));
#897=CARTESIAN_POINT('',(-106.673618891086,30.0000004768372,98.011621320734));
#898=CARTESIAN_POINT('Origin',(-105.323618891086,30.0000004768372,98.011621320734));
#899=CARTESIAN_POINT('Origin',(-97.766001505017,26.7660004768372,58.5));
#900=CARTESIAN_POINT('',(-101.000001505017,26.7660004768372,117.5));
#901=CARTESIAN_POINT('',(-99.5915938161762,29.4354514903297,117.5));
#902=CARTESIAN_POINT('Origin',(-97.766001505017,26.7660004768372,117.5));
#903=CARTESIAN_POINT('',(-101.000001505017,26.7660004768372,115.));
#904=CARTESIAN_POINT('',(-101.000001505017,26.7660004768372,58.5));
#905=CARTESIAN_POINT('Origin',(-97.766001505017,26.7660004768372,115.));
#906=CARTESIAN_POINT('Ctrl Pts',(-97.7660015050172,30.0000004768372,116.966451069673));
#907=CARTESIAN_POINT('Ctrl Pts',(-97.8009209476076,30.0000004768372,116.988768506362));
#908=CARTESIAN_POINT('Ctrl Pts',(-97.8362379801042,29.999434854738,117.010438049041));
#909=CARTESIAN_POINT('Ctrl Pts',(-98.1046163857549,29.9906397887383,117.168415172735));
#910=CARTESIAN_POINT('Ctrl Pts',(-98.3725659856787,29.9547930863726,117.285547153241));
#911=CARTESIAN_POINT('Ctrl Pts',(-98.9088085619164,29.8041431667546,117.442256392553));
#912=CARTESIAN_POINT('Ctrl Pts',(-99.1766807258538,29.6885929092948,117.482553472619));
#913=CARTESIAN_POINT('Ctrl Pts',(-99.4710769795639,29.5149372564601,117.498425827536));
#914=CARTESIAN_POINT('Ctrl Pts',(-99.5319704475311,29.4762269017585,117.5));
#915=CARTESIAN_POINT('Ctrl Pts',(-99.5915938161762,29.4354514903297,117.5));
#916=CARTESIAN_POINT('Origin',(-129.234001877546,26.7660004768372,58.5));
#917=CARTESIAN_POINT('',(-126.61,28.656336464601,117.5));
#918=CARTESIAN_POINT('Ctrl Pts',(-126.61,28.6563364646017,117.5));
#919=CARTESIAN_POINT('Ctrl Pts',(-126.790162312583,28.9064222956596,117.5));
#920=CARTESIAN_POINT('Ctrl Pts',(-127.004822726011,29.1273916087831,117.485158777477));
#921=CARTESIAN_POINT('Ctrl Pts',(-127.423375875602,29.4561625791402,117.406475188079));
#922=CARTESIAN_POINT('Ctrl Pts',(-127.641166076549,29.5910816806874,117.348093315329));
#923=CARTESIAN_POINT('Ctrl Pts',(-128.082765071232,29.7979739530977,117.17259940906));
#924=CARTESIAN_POINT('Ctrl Pts',(-128.30600344946,29.8705183704895,117.054727229245));
#925=CARTESIAN_POINT('Ctrl Pts',(-128.72325053675,29.9674879633996,116.774098146762));
#926=CARTESIAN_POINT('Ctrl Pts',(-128.932465986838,29.9912815637654,116.594880580483));
#927=CARTESIAN_POINT('Ctrl Pts',(-129.157988673199,29.999350030052,116.346810646556));
#928=CARTESIAN_POINT('Ctrl Pts',(-129.196560181276,30.0000004768372,116.302100275563));
#929=CARTESIAN_POINT('Ctrl Pts',(-129.234001877546,30.0000004768372,116.256325731718));
#930=CARTESIAN_POINT('',(-126.000001877546,26.7660004768372,115.));
#931=CARTESIAN_POINT('Origin',(-129.234001877546,26.7660004768372,115.));
#932=CARTESIAN_POINT('',(-126.000001877546,26.7660004768372,117.5));
#933=CARTESIAN_POINT('',(-126.000001877546,26.7660004768372,58.5));
#934=CARTESIAN_POINT('Origin',(-129.234001877546,26.7660004768372,117.5));
#935=CARTESIAN_POINT('Origin',(-126.000001877546,20.0000002980232,117.5));
#936=CARTESIAN_POINT('',(-126.000001877546,25.4,115.));
#937=CARTESIAN_POINT('',(-126.000001877546,23.0000003427267,115.));
#938=CARTESIAN_POINT('',(-126.000001877546,25.4,112.9));
#939=CARTESIAN_POINT('',(-126.000001877546,25.4,114.5));
#940=CARTESIAN_POINT('',(-126.000001877546,23.6040002980232,112.9));
#941=CARTESIAN_POINT('',(-126.000001877546,21.3500002235174,112.9));
#942=CARTESIAN_POINT('',(-126.000001877546,20.0000002980232,116.504));
#943=CARTESIAN_POINT('',(-126.000001877546,21.0020002980232,115.502));
#944=CARTESIAN_POINT('',(-126.000001877546,20.0000002980232,117.5));
#945=CARTESIAN_POINT('',(-126.000001877546,20.0000002980232,117.5));
#946=CARTESIAN_POINT('',(-126.000001877546,32.0000004768372,117.5));
#947=CARTESIAN_POINT('Origin',(-126.61,31.5000004768372,114.11));
#948=CARTESIAN_POINT('',(-126.61,32.0000004768372,117.5));
#949=CARTESIAN_POINT('',(-126.61,31.5000004768372,117.5));
#950=CARTESIAN_POINT('',(-130.,32.0000004768372,114.11));
#951=CARTESIAN_POINT('Origin',(-126.61,32.0000004768372,114.11));
#952=CARTESIAN_POINT('',(-130.,31.5000004768372,114.11));
#953=CARTESIAN_POINT('Origin',(-85.3472139229311,33.0000004768372,117.5));
#954=CARTESIAN_POINT('',(-101.000001505017,20.0000002980232,117.5));
#955=CARTESIAN_POINT('',(-126.000001877546,20.0000002980232,117.5));
#956=CARTESIAN_POINT('',(-101.000001505017,20.0000002980232,117.5));
#957=CARTESIAN_POINT('',(-99.5915938161762,32.0000004768372,117.5));
#958=CARTESIAN_POINT('',(-99.5915938161762,31.5000004768372,117.5));
#959=CARTESIAN_POINT('',(-52.6539900608155,32.0000004768372,117.5));
#960=CARTESIAN_POINT('Origin',(-126.61,31.5000004768372,-0.110000000000001));
#961=CARTESIAN_POINT('',(-130.,32.0000004768372,-0.110000000000001));
#962=CARTESIAN_POINT('',(-126.61,32.0000004768372,-3.5));
#963=CARTESIAN_POINT('Origin',(-126.61,32.0000004768372,-0.110000000000001));
#964=CARTESIAN_POINT('',(-126.61,31.5000004768372,-3.5));
#965=CARTESIAN_POINT('',(-130.,31.5000004768372,-0.110000000000001));
#966=CARTESIAN_POINT('Origin',(-85.3472139229311,33.0000004768372,-3.5));
#967=CARTESIAN_POINT('',(-99.5915938161762,32.0000004768372,-3.5));
#968=CARTESIAN_POINT('',(-151.000002250075,32.0000004768372,-3.5));
#969=CARTESIAN_POINT('',(-99.5915938161762,31.5000004768372,-3.5));
#970=CARTESIAN_POINT('',(-126.000001877546,20.0000002980232,-3.5));
#971=CARTESIAN_POINT('',(-126.000001877546,20.0000002980232,-3.5));
#972=CARTESIAN_POINT('',(-126.000001877546,32.0000004768372,-3.5));
#973=CARTESIAN_POINT('Origin',(-99.5915938161762,31.5000004768372,-0.109999999999992));
#974=CARTESIAN_POINT('',(-96.2015938161762,32.0000004768372,-0.109999999999992));
#975=CARTESIAN_POINT('Origin',(-99.5915938161762,32.0000004768372,-0.109999999999992));
#976=CARTESIAN_POINT('',(-96.2015938161762,31.5000004768372,-0.109999999999992));
#977=CARTESIAN_POINT('Origin',(-99.5915938161762,31.5000004768372,114.11));
#978=CARTESIAN_POINT('',(-96.2015938161762,32.0000004768372,114.11));
#979=CARTESIAN_POINT('Origin',(-99.5915938161762,32.0000004768372,114.11));
#980=CARTESIAN_POINT('',(-96.2015938161762,31.5000004768372,114.11));
#981=CARTESIAN_POINT('Origin',(-105.323618891086,30.0000004768372,21.711617792139));
#982=CARTESIAN_POINT('',(-106.673618891086,32.0000004768372,21.711617792139));
#983=CARTESIAN_POINT('',(-106.673618891086,30.0000004768372,21.711617792139));
#984=CARTESIAN_POINT('Origin',(-105.323618891086,32.0000004768372,21.711617792139));
#985=CARTESIAN_POINT('Origin',(-105.323618891086,30.0000004768372,98.011621320734));
#986=CARTESIAN_POINT('',(-106.673618891086,32.0000004768372,98.011621320734));
#987=CARTESIAN_POINT('',(-106.673618891086,30.0000004768372,98.011621320734));
#988=CARTESIAN_POINT('Origin',(-105.323618891086,32.0000004768372,98.011621320734));
#989=CARTESIAN_POINT('Origin',(-130.,30.0000004768372,-25.));
#990=CARTESIAN_POINT('',(-130.,32.0000004768372,-12.75));
#991=CARTESIAN_POINT('Origin',(-96.2015938161762,30.0000004768372,121.98055757926));
#992=CARTESIAN_POINT('',(-96.2015938161762,32.0000004768372,60.7402787896298));
#993=CARTESIAN_POINT('Origin',(-107.25000159815,22.5020002980232,-0.00199999999997758));
#994=CARTESIAN_POINT('',(-126.000001877546,20.0000002980232,-2.50399999999997));
#995=CARTESIAN_POINT('',(-126.000001877546,23.6040002980232,1.10000000000002));
#996=CARTESIAN_POINT('',(-126.000001877546,21.0020002980232,-1.50199999999998));
#997=CARTESIAN_POINT('',(-107.25000159815,20.0000002980232,-2.50399999999997));
#998=CARTESIAN_POINT('',(-110.375001644716,23.6040002980232,1.10000000000002));
#999=CARTESIAN_POINT('Origin',(-113.500001691282,22.7000001490116,1.10000000000002));
#1000=CARTESIAN_POINT('',(-126.000001877546,25.4,1.10000000000002));
#1001=CARTESIAN_POINT('',(-119.750001784414,25.4,1.10000000000002));
#1002=CARTESIAN_POINT('',(-126.000001877546,21.3500002235174,1.10000000000002));
#1003=CARTESIAN_POINT('Origin',(-126.000001877546,25.4,-0.499999999999989));
#1004=CARTESIAN_POINT('',(-126.000001877546,25.4,-0.999999999999989));
#1005=CARTESIAN_POINT('',(-119.750001784414,25.4,-0.999999999999989));
#1006=CARTESIAN_POINT('',(-126.000001877546,25.4,-0.499999999999989));
#1007=CARTESIAN_POINT('Origin',(-113.500001691282,26.0000003874302,-0.999999999999989));
#1008=CARTESIAN_POINT('',(-126.000001877546,23.0000003427267,-0.999999999999989));
#1009=CARTESIAN_POINT('Origin',(-126.000001877546,20.0000002980232,-3.5));
#1010=CARTESIAN_POINT('',(-126.000001877546,20.0000002980232,-3.5));
#1011=CARTESIAN_POINT('Origin',(-101.000001505017,20.0000002980232,-3.5));
#1012=CARTESIAN_POINT('Origin',(-19.9607661987,32.0000004768372,-0.5));
#1013=CARTESIAN_POINT('Origin',(-107.25000159815,22.5020002980232,114.002));
#1014=CARTESIAN_POINT('',(-101.000001505017,23.6040002980227,112.9));
#1015=CARTESIAN_POINT('',(-110.375001644716,23.6040002980232,112.9));
#1016=CARTESIAN_POINT('',(-101.000001505017,20.0000002980232,116.504));
#1017=CARTESIAN_POINT('',(-101.000001505017,24.0020003427267,112.501999955296));
#1018=CARTESIAN_POINT('',(-107.25000159815,20.0000002980232,116.504));
#1019=CARTESIAN_POINT('Origin',(-101.000001505017,32.0000004768372,117.5));
#1020=CARTESIAN_POINT('',(-101.000001505017,20.0000002980232,117.5));
#1021=CARTESIAN_POINT('',(-101.000001505017,25.4,112.9));
#1022=CARTESIAN_POINT('',(-101.000001505017,27.3500003129244,112.9));
#1023=CARTESIAN_POINT('',(-101.000001505017,25.4,115.));
#1024=CARTESIAN_POINT('',(-101.000001505017,25.4,114.5));
#1025=CARTESIAN_POINT('',(-101.000001505017,29.0000004321337,115.));
#1026=CARTESIAN_POINT('Origin',(-113.500001691282,22.7000001490116,112.9));
#1027=CARTESIAN_POINT('',(-119.750001784414,25.4,112.9));
#1028=CARTESIAN_POINT('Origin',(-126.000001877546,25.4,114.5));
#1029=CARTESIAN_POINT('',(-119.750001784414,25.4,115.));
#1030=CARTESIAN_POINT('Origin',(-113.500001691282,26.0000003874302,115.));
#1031=CARTESIAN_POINT('Origin',(-101.000001505017,20.0000002980232,117.5));
#1032=UNCERTAINTY_MEASURE_WITH_UNIT(LENGTH_MEASURE(0.01),#1036,
'DISTANCE_ACCURACY_VALUE',
'Maximum model space distance between geometric entities at asserted c
onnectivities');
#1033=UNCERTAINTY_MEASURE_WITH_UNIT(LENGTH_MEASURE(0.01),#1036,
'DISTANCE_ACCURACY_VALUE',
'Maximum model space distance between geometric entities at asserted c
onnectivities');
#1034=(
GEOMETRIC_REPRESENTATION_CONTEXT(3)
GLOBAL_UNCERTAINTY_ASSIGNED_CONTEXT((#1032))
GLOBAL_UNIT_ASSIGNED_CONTEXT((#1036,#1038,#1039))
REPRESENTATION_CONTEXT('','3D')
);
#1035=(
GEOMETRIC_REPRESENTATION_CONTEXT(3)
GLOBAL_UNCERTAINTY_ASSIGNED_CONTEXT((#1033))
GLOBAL_UNIT_ASSIGNED_CONTEXT((#1036,#1038,#1039))
REPRESENTATION_CONTEXT('','3D')
);
#1036=(
LENGTH_UNIT()
NAMED_UNIT(*)
SI_UNIT(.MILLI.,.METRE.)
);
#1037=(
LENGTH_UNIT()
NAMED_UNIT(*)
SI_UNIT($,.METRE.)
);
#1038=(
NAMED_UNIT(*)
PLANE_ANGLE_UNIT()
SI_UNIT($,.RADIAN.)
);
#1039=(
NAMED_UNIT(*)
SI_UNIT($,.STERADIAN.)
SOLID_ANGLE_UNIT()
);
#1040=SHAPE_DEFINITION_REPRESENTATION(#1041,#1042);
#1041=PRODUCT_DEFINITION_SHAPE('',$,#1044);
#1042=SHAPE_REPRESENTATION('',(#608),#1034);
#1043=PRODUCT_DEFINITION_CONTEXT('part definition',#1048,'design');
#1044=PRODUCT_DEFINITION('2026-08-17-16-18-35-147','ps2b',#1045,#1043);
#1045=PRODUCT_DEFINITION_FORMATION('',$,#1050);
#1046=PRODUCT_RELATED_PRODUCT_CATEGORY('ps2b','ps2b',(#1050));
#1047=APPLICATION_PROTOCOL_DEFINITION('international standard',
'automotive_design',2009,#1048);
#1048=APPLICATION_CONTEXT(
'Core Data for Automotive Mechanical Design Process');
#1049=PRODUCT_CONTEXT('part definition',#1048,'mechanical');
#1050=PRODUCT('2026-08-17-16-18-35-147','ps2b',$,(#1049));
#1051=PRESENTATION_STYLE_ASSIGNMENT((#1053));
#1052=PRESENTATION_STYLE_ASSIGNMENT((#1054));
#1053=SURFACE_STYLE_USAGE(.BOTH.,#1055);
#1054=SURFACE_STYLE_USAGE(.BOTH.,#1056);
#1055=SURFACE_SIDE_STYLE('',(#1057));
#1056=SURFACE_SIDE_STYLE('',(#1058));
#1057=SURFACE_STYLE_FILL_AREA(#1059);
#1058=SURFACE_STYLE_FILL_AREA(#1060);
#1059=FILL_AREA_STYLE('Plate',(#1061));
#1060=FILL_AREA_STYLE('Opaque(160,160,160)',(#1062));
#1061=FILL_AREA_STYLE_COLOUR('Plate',#1063);
#1062=FILL_AREA_STYLE_COLOUR('Opaque(160,160,160)',#1064);
#1063=COLOUR_RGB('Plate',0.6,0.6,0.6);
#1064=COLOUR_RGB('Opaque(160,160,160)',0.627450980392157,0.627450980392157,
0.627450980392157);
ENDSEC;
END-ISO-10303-21;
