ISO-10303-21;
HEADER;
/* Generated by software containing ST-Developer
 * from STEP Tools, Inc. (www.steptools.com) 
 */

FILE_DESCRIPTION(
/* description */ (''),
/* implementation_level */ '2;1');

FILE_NAME(
/* name */ 'skr3-lid.step',
/* time_stamp */ '2026-08-17T16:19:30-04:00',
/* author */ (''),
/* organization */ (''),
/* preprocessor_version */ 'ST-DEVELOPER v20.1',
/* originating_system */ 'Autodesk Translation Framework v15.8.0.0',
/* authorisation */ '');

FILE_SCHEMA (('AUTOMOTIVE_DESIGN { 1 0 10303 214 3 1 1 }'));
ENDSEC;

DATA;
#10=MECHANICAL_DESIGN_GEOMETRIC_PRESENTATION_REPRESENTATION('',(#13),#1182);
#11=SHAPE_REPRESENTATION_RELATIONSHIP('SRR','None',#1189,#12);
#12=ADVANCED_BREP_SHAPE_REPRESENTATION('',(#14),#1181);
#13=STYLED_ITEM('',(#1198),#14);
#14=MANIFOLD_SOLID_BREP('skr3-lid',#670);
#15=B_SPLINE_SURFACE_WITH_KNOTS('',3,3,((#1066,#1067,#1068,#1069,#1070,
#1071),(#1072,#1073,#1074,#1075,#1076,#1077),(#1078,#1079,#1080,#1081,#1082,
#1083),(#1084,#1085,#1086,#1087,#1088,#1089),(#1090,#1091,#1092,#1093,#1094,
#1095)),.UNSPECIFIED.,.F.,.F.,.F.,(4,1,4),(4,1,1,4),(0.,0.571428571428571,
1.),(0.,0.673198425769242,1.12199737628207,1.5707963267949),
 .UNSPECIFIED.);
#16=B_SPLINE_CURVE_WITH_KNOTS('',3,(#1045,#1046,#1047,#1048,#1049,#1050,
#1051,#1052,#1053,#1054),.UNSPECIFIED.,.F.,.F.,(4,2,2,2,4),(0.,0.0994472027144237,
0.198894405428847,0.254477247702502,0.310060089976157),.UNSPECIFIED.);
#17=ELLIPSE('',#703,2.34608596358399,1.886);
#18=ELLIPSE('',#704,2.34608596358399,1.886);
#19=ELLIPSE('',#717,3.89390851616937,2.316);
#20=ELLIPSE('',#721,2.9400004535064,2.717);
#21=ELLIPSE('',#722,1.39716665670844,0.831000000000001);
#22=FACE_BOUND('',#86,.T.);
#23=FACE_BOUND('',#87,.T.);
#24=FACE_BOUND('',#90,.T.);
#25=FACE_BOUND('',#91,.T.);
#26=FACE_BOUND('',#121,.T.);
#27=FACE_BOUND('',#122,.T.);
#28=FACE_BOUND('',#123,.T.);
#29=FACE_BOUND('',#124,.T.);
#30=FACE_BOUND('',#126,.T.);
#31=PLANE('',#687);
#32=PLANE('',#688);
#33=PLANE('',#695);
#34=PLANE('',#699);
#35=PLANE('',#702);
#36=PLANE('',#716);
#37=PLANE('',#725);
#38=PLANE('',#730);
#39=PLANE('',#731);
#40=PLANE('',#732);
#41=PLANE('',#733);
#42=PLANE('',#737);
#43=PLANE('',#741);
#44=PLANE('',#745);
#45=PLANE('',#749);
#46=PLANE('',#750);
#47=PLANE('',#751);
#48=FACE_OUTER_BOUND('',#83,.T.);
#49=FACE_OUTER_BOUND('',#84,.T.);
#50=FACE_OUTER_BOUND('',#85,.T.);
#51=FACE_OUTER_BOUND('',#88,.T.);
#52=FACE_OUTER_BOUND('',#89,.T.);
#53=FACE_OUTER_BOUND('',#92,.T.);
#54=FACE_OUTER_BOUND('',#93,.T.);
#55=FACE_OUTER_BOUND('',#94,.T.);
#56=FACE_OUTER_BOUND('',#95,.T.);
#57=FACE_OUTER_BOUND('',#96,.T.);
#58=FACE_OUTER_BOUND('',#97,.T.);
#59=FACE_OUTER_BOUND('',#98,.T.);
#60=FACE_OUTER_BOUND('',#99,.T.);
#61=FACE_OUTER_BOUND('',#100,.T.);
#62=FACE_OUTER_BOUND('',#101,.T.);
#63=FACE_OUTER_BOUND('',#102,.T.);
#64=FACE_OUTER_BOUND('',#103,.T.);
#65=FACE_OUTER_BOUND('',#104,.T.);
#66=FACE_OUTER_BOUND('',#105,.T.);
#67=FACE_OUTER_BOUND('',#106,.T.);
#68=FACE_OUTER_BOUND('',#107,.T.);
#69=FACE_OUTER_BOUND('',#108,.T.);
#70=FACE_OUTER_BOUND('',#109,.T.);
#71=FACE_OUTER_BOUND('',#110,.T.);
#72=FACE_OUTER_BOUND('',#111,.T.);
#73=FACE_OUTER_BOUND('',#112,.T.);
#74=FACE_OUTER_BOUND('',#113,.T.);
#75=FACE_OUTER_BOUND('',#114,.T.);
#76=FACE_OUTER_BOUND('',#115,.T.);
#77=FACE_OUTER_BOUND('',#116,.T.);
#78=FACE_OUTER_BOUND('',#117,.T.);
#79=FACE_OUTER_BOUND('',#118,.T.);
#80=FACE_OUTER_BOUND('',#119,.T.);
#81=FACE_OUTER_BOUND('',#120,.T.);
#82=FACE_OUTER_BOUND('',#125,.T.);
#83=EDGE_LOOP('',(#430,#431,#432,#433));
#84=EDGE_LOOP('',(#434,#435,#436,#437));
#85=EDGE_LOOP('',(#438,#439,#440,#441,#442,#443,#444));
#86=EDGE_LOOP('',(#445));
#87=EDGE_LOOP('',(#446));
#88=EDGE_LOOP('',(#447,#448,#449,#450));
#89=EDGE_LOOP('',(#451,#452,#453,#454,#455,#456,#457));
#90=EDGE_LOOP('',(#458));
#91=EDGE_LOOP('',(#459));
#92=EDGE_LOOP('',(#460,#461,#462,#463));
#93=EDGE_LOOP('',(#464,#465,#466,#467));
#94=EDGE_LOOP('',(#468,#469,#470,#471,#472,#473,#474,#475,#476,#477));
#95=EDGE_LOOP('',(#478,#479,#480,#481));
#96=EDGE_LOOP('',(#482,#483,#484,#485));
#97=EDGE_LOOP('',(#486,#487,#488,#489));
#98=EDGE_LOOP('',(#490,#491,#492,#493));
#99=EDGE_LOOP('',(#494,#495,#496,#497));
#100=EDGE_LOOP('',(#498,#499,#500,#501));
#101=EDGE_LOOP('',(#502,#503,#504,#505,#506));
#102=EDGE_LOOP('',(#507,#508,#509,#510));
#103=EDGE_LOOP('',(#511,#512,#513,#514));
#104=EDGE_LOOP('',(#515,#516,#517,#518));
#105=EDGE_LOOP('',(#519,#520,#521,#522,#523));
#106=EDGE_LOOP('',(#524,#525,#526,#527,#528));
#107=EDGE_LOOP('',(#529,#530,#531,#532));
#108=EDGE_LOOP('',(#533,#534,#535,#536));
#109=EDGE_LOOP('',(#537,#538,#539,#540));
#110=EDGE_LOOP('',(#541,#542,#543,#544,#545,#546,#547));
#111=EDGE_LOOP('',(#548,#549,#550,#551,#552,#553,#554,#555,#556,#557));
#112=EDGE_LOOP('',(#558,#559,#560,#561));
#113=EDGE_LOOP('',(#562,#563,#564,#565));
#114=EDGE_LOOP('',(#566,#567,#568,#569));
#115=EDGE_LOOP('',(#570,#571,#572,#573));
#116=EDGE_LOOP('',(#574,#575,#576,#577));
#117=EDGE_LOOP('',(#578,#579,#580,#581));
#118=EDGE_LOOP('',(#582,#583,#584,#585));
#119=EDGE_LOOP('',(#586,#587,#588,#589));
#120=EDGE_LOOP('',(#590,#591,#592,#593,#594,#595,#596,#597));
#121=EDGE_LOOP('',(#598));
#122=EDGE_LOOP('',(#599));
#123=EDGE_LOOP('',(#600));
#124=EDGE_LOOP('',(#601));
#125=EDGE_LOOP('',(#602,#603,#604,#605,#606,#607,#608,#609));
#126=EDGE_LOOP('',(#610,#611,#612,#613,#614,#615,#616,#617));
#127=LINE('',#955,#186);
#128=LINE('',#958,#187);
#129=LINE('',#961,#188);
#130=LINE('',#963,#189);
#131=LINE('',#964,#190);
#132=LINE('',#967,#191);
#133=LINE('',#969,#192);
#134=LINE('',#971,#193);
#135=LINE('',#973,#194);
#136=LINE('',#984,#195);
#137=LINE('',#987,#196);
#138=LINE('',#990,#197);
#139=LINE('',#994,#198);
#140=LINE('',#996,#199);
#141=LINE('',#998,#200);
#142=LINE('',#999,#201);
#143=LINE('',#1006,#202);
#144=LINE('',#1007,#203);
#145=LINE('',#1010,#204);
#146=LINE('',#1016,#205);
#147=LINE('',#1018,#206);
#148=LINE('',#1020,#207);
#149=LINE('',#1023,#208);
#150=LINE('',#1024,#209);
#151=LINE('',#1030,#210);
#152=LINE('',#1034,#211);
#153=LINE('',#1038,#212);
#154=LINE('',#1042,#213);
#155=LINE('',#1055,#214);
#156=LINE('',#1060,#215);
#157=LINE('',#1061,#216);
#158=LINE('',#1065,#217);
#159=LINE('',#1105,#218);
#160=LINE('',#1106,#219);
#161=LINE('',#1108,#220);
#162=LINE('',#1112,#221);
#163=LINE('',#1115,#222);
#164=LINE('',#1119,#223);
#165=LINE('',#1120,#224);
#166=LINE('',#1123,#225);
#167=LINE('',#1124,#226);
#168=LINE('',#1126,#227);
#169=LINE('',#1128,#228);
#170=LINE('',#1134,#229);
#171=LINE('',#1137,#230);
#172=LINE('',#1140,#231);
#173=LINE('',#1142,#232);
#174=LINE('',#1143,#233);
#175=LINE('',#1149,#234);
#176=LINE('',#1152,#235);
#177=LINE('',#1154,#236);
#178=LINE('',#1155,#237);
#179=LINE('',#1161,#238);
#180=LINE('',#1164,#239);
#181=LINE('',#1166,#240);
#182=LINE('',#1167,#241);
#183=LINE('',#1173,#242);
#184=LINE('',#1175,#243);
#185=LINE('',#1176,#244);
#186=VECTOR('',#758,10.);
#187=VECTOR('',#761,10.);
#188=VECTOR('',#764,10.);
#189=VECTOR('',#765,10.);
#190=VECTOR('',#766,10.);
#191=VECTOR('',#769,10.);
#192=VECTOR('',#770,10.);
#193=VECTOR('',#771,10.);
#194=VECTOR('',#772,10.);
#195=VECTOR('',#783,10.);
#196=VECTOR('',#786,10.);
#197=VECTOR('',#789,10.);
#198=VECTOR('',#792,10.);
#199=VECTOR('',#793,10.);
#200=VECTOR('',#794,10.);
#201=VECTOR('',#795,10.);
#202=VECTOR('',#802,10.);
#203=VECTOR('',#803,10.);
#204=VECTOR('',#806,10.);
#205=VECTOR('',#813,10.);
#206=VECTOR('',#814,10.);
#207=VECTOR('',#815,10.);
#208=VECTOR('',#818,10.);
#209=VECTOR('',#819,10.);
#210=VECTOR('',#828,1.99999999999999);
#211=VECTOR('',#833,1.99999999999999);
#212=VECTOR('',#838,1.99999999999999);
#213=VECTOR('',#843,2.);
#214=VECTOR('',#846,10.);
#215=VECTOR('',#851,10.);
#216=VECTOR('',#852,10.);
#217=VECTOR('',#857,10.);
#218=VECTOR('',#868,10.);
#219=VECTOR('',#869,10.);
#220=VECTOR('',#872,10.);
#221=VECTOR('',#877,10.);
#222=VECTOR('',#880,10.);
#223=VECTOR('',#885,10.);
#224=VECTOR('',#886,10.);
#225=VECTOR('',#889,10.);
#226=VECTOR('',#890,10.);
#227=VECTOR('',#893,10.);
#228=VECTOR('',#896,10.);
#229=VECTOR('',#901,10.);
#230=VECTOR('',#904,10.);
#231=VECTOR('',#907,10.);
#232=VECTOR('',#908,10.);
#233=VECTOR('',#909,10.);
#234=VECTOR('',#916,10.);
#235=VECTOR('',#919,10.);
#236=VECTOR('',#920,10.);
#237=VECTOR('',#921,10.);
#238=VECTOR('',#928,10.);
#239=VECTOR('',#931,10.);
#240=VECTOR('',#932,10.);
#241=VECTOR('',#933,10.);
#242=VECTOR('',#940,10.);
#243=VECTOR('',#943,10.);
#244=VECTOR('',#944,10.);
#245=CIRCLE('',#685,2.358);
#246=CIRCLE('',#686,2.358);
#247=CIRCLE('',#689,2.358);
#248=CIRCLE('',#690,1.99999999999999);
#249=CIRCLE('',#691,1.99999999999999);
#250=CIRCLE('',#693,2.358);
#251=CIRCLE('',#694,2.358);
#252=CIRCLE('',#696,2.358);
#253=CIRCLE('',#697,1.99999999999999);
#254=CIRCLE('',#698,2.);
#255=CIRCLE('',#701,2.358);
#256=CIRCLE('',#706,2.358);
#257=CIRCLE('',#708,1.99999999999999);
#258=CIRCLE('',#710,1.99999999999999);
#259=CIRCLE('',#712,1.99999999999999);
#260=CIRCLE('',#714,2.);
#261=CIRCLE('',#719,1.886);
#262=CIRCLE('',#720,1.886);
#263=CIRCLE('',#724,1.886);
#264=CIRCLE('',#727,2.316);
#265=CIRCLE('',#729,2.717);
#266=CIRCLE('',#735,3.37499999999999);
#267=CIRCLE('',#736,3.37499999999999);
#268=CIRCLE('',#739,3.37500000000001);
#269=CIRCLE('',#740,3.37500000000001);
#270=CIRCLE('',#743,3.37500000000002);
#271=CIRCLE('',#744,3.37500000000002);
#272=CIRCLE('',#747,3.37500000000002);
#273=CIRCLE('',#748,3.37500000000002);
#274=VERTEX_POINT('',#951);
#275=VERTEX_POINT('',#952);
#276=VERTEX_POINT('',#954);
#277=VERTEX_POINT('',#956);
#278=VERTEX_POINT('',#960);
#279=VERTEX_POINT('',#962);
#280=VERTEX_POINT('',#966);
#281=VERTEX_POINT('',#968);
#282=VERTEX_POINT('',#970);
#283=VERTEX_POINT('',#972);
#284=VERTEX_POINT('',#975);
#285=VERTEX_POINT('',#977);
#286=VERTEX_POINT('',#980);
#287=VERTEX_POINT('',#981);
#288=VERTEX_POINT('',#983);
#289=VERTEX_POINT('',#985);
#290=VERTEX_POINT('',#989);
#291=VERTEX_POINT('',#991);
#292=VERTEX_POINT('',#993);
#293=VERTEX_POINT('',#995);
#294=VERTEX_POINT('',#997);
#295=VERTEX_POINT('',#1000);
#296=VERTEX_POINT('',#1002);
#297=VERTEX_POINT('',#1005);
#298=VERTEX_POINT('',#1009);
#299=VERTEX_POINT('',#1013);
#300=VERTEX_POINT('',#1015);
#301=VERTEX_POINT('',#1017);
#302=VERTEX_POINT('',#1019);
#303=VERTEX_POINT('',#1022);
#304=VERTEX_POINT('',#1028);
#305=VERTEX_POINT('',#1032);
#306=VERTEX_POINT('',#1036);
#307=VERTEX_POINT('',#1040);
#308=VERTEX_POINT('',#1044);
#309=VERTEX_POINT('',#1057);
#310=VERTEX_POINT('',#1059);
#311=VERTEX_POINT('',#1063);
#312=VERTEX_POINT('',#1096);
#313=VERTEX_POINT('',#1097);
#314=VERTEX_POINT('',#1102);
#315=VERTEX_POINT('',#1103);
#316=VERTEX_POINT('',#1110);
#317=VERTEX_POINT('',#1114);
#318=VERTEX_POINT('',#1118);
#319=VERTEX_POINT('',#1122);
#320=VERTEX_POINT('',#1130);
#321=VERTEX_POINT('',#1131);
#322=VERTEX_POINT('',#1133);
#323=VERTEX_POINT('',#1135);
#324=VERTEX_POINT('',#1139);
#325=VERTEX_POINT('',#1141);
#326=VERTEX_POINT('',#1145);
#327=VERTEX_POINT('',#1147);
#328=VERTEX_POINT('',#1151);
#329=VERTEX_POINT('',#1153);
#330=VERTEX_POINT('',#1157);
#331=VERTEX_POINT('',#1159);
#332=VERTEX_POINT('',#1163);
#333=VERTEX_POINT('',#1165);
#334=VERTEX_POINT('',#1169);
#335=VERTEX_POINT('',#1171);
#336=EDGE_CURVE('',#274,#275,#245,.T.);
#337=EDGE_CURVE('',#275,#276,#127,.T.);
#338=EDGE_CURVE('',#276,#277,#246,.F.);
#339=EDGE_CURVE('',#277,#274,#128,.T.);
#340=EDGE_CURVE('',#278,#275,#129,.T.);
#341=EDGE_CURVE('',#279,#278,#130,.T.);
#342=EDGE_CURVE('',#276,#279,#131,.T.);
#343=EDGE_CURVE('',#274,#280,#132,.T.);
#344=EDGE_CURVE('',#281,#280,#133,.T.);
#345=EDGE_CURVE('',#282,#281,#134,.T.);
#346=EDGE_CURVE('',#282,#283,#135,.T.);
#347=EDGE_CURVE('',#278,#283,#247,.T.);
#348=EDGE_CURVE('',#284,#284,#248,.T.);
#349=EDGE_CURVE('',#285,#285,#249,.T.);
#350=EDGE_CURVE('',#286,#287,#250,.T.);
#351=EDGE_CURVE('',#287,#288,#136,.T.);
#352=EDGE_CURVE('',#288,#289,#251,.F.);
#353=EDGE_CURVE('',#289,#286,#137,.T.);
#354=EDGE_CURVE('',#286,#290,#138,.T.);
#355=EDGE_CURVE('',#291,#290,#252,.T.);
#356=EDGE_CURVE('',#291,#292,#139,.T.);
#357=EDGE_CURVE('',#293,#292,#140,.T.);
#358=EDGE_CURVE('',#294,#293,#141,.T.);
#359=EDGE_CURVE('',#294,#287,#142,.T.);
#360=EDGE_CURVE('',#295,#295,#253,.T.);
#361=EDGE_CURVE('',#296,#296,#254,.T.);
#362=EDGE_CURVE('',#297,#289,#143,.T.);
#363=EDGE_CURVE('',#290,#297,#144,.T.);
#364=EDGE_CURVE('',#283,#298,#145,.T.);
#365=EDGE_CURVE('',#298,#279,#255,.F.);
#366=EDGE_CURVE('',#299,#282,#17,.T.);
#367=EDGE_CURVE('',#299,#300,#146,.T.);
#368=EDGE_CURVE('',#301,#300,#147,.T.);
#369=EDGE_CURVE('',#302,#301,#148,.T.);
#370=EDGE_CURVE('',#292,#302,#18,.T.);
#371=EDGE_CURVE('',#303,#291,#149,.T.);
#372=EDGE_CURVE('',#298,#303,#150,.T.);
#373=EDGE_CURVE('',#297,#303,#256,.F.);
#374=EDGE_CURVE('',#304,#304,#257,.T.);
#375=EDGE_CURVE('',#304,#284,#151,.T.);
#376=EDGE_CURVE('',#305,#305,#258,.T.);
#377=EDGE_CURVE('',#305,#295,#152,.T.);
#378=EDGE_CURVE('',#306,#306,#259,.T.);
#379=EDGE_CURVE('',#306,#285,#153,.T.);
#380=EDGE_CURVE('',#307,#307,#260,.T.);
#381=EDGE_CURVE('',#307,#296,#154,.T.);
#382=EDGE_CURVE('',#281,#308,#16,.T.);
#383=EDGE_CURVE('',#308,#299,#155,.T.);
#384=EDGE_CURVE('',#309,#308,#19,.T.);
#385=EDGE_CURVE('',#309,#310,#156,.T.);
#386=EDGE_CURVE('',#300,#310,#157,.T.);
#387=EDGE_CURVE('',#311,#293,#261,.T.);
#388=EDGE_CURVE('',#302,#311,#158,.T.);
#389=EDGE_CURVE('',#312,#313,#262,.T.);
#390=EDGE_CURVE('',#313,#293,#20,.T.);
#391=EDGE_CURVE('',#311,#312,#21,.T.);
#392=EDGE_CURVE('',#314,#315,#263,.T.);
#393=EDGE_CURVE('',#315,#313,#159,.T.);
#394=EDGE_CURVE('',#312,#314,#160,.T.);
#395=EDGE_CURVE('',#314,#301,#161,.T.);
#396=EDGE_CURVE('',#280,#316,#264,.T.);
#397=EDGE_CURVE('',#316,#309,#162,.T.);
#398=EDGE_CURVE('',#313,#317,#163,.T.);
#399=EDGE_CURVE('',#317,#294,#265,.T.);
#400=EDGE_CURVE('',#318,#315,#164,.T.);
#401=EDGE_CURVE('',#317,#318,#165,.T.);
#402=EDGE_CURVE('',#316,#319,#166,.T.);
#403=EDGE_CURVE('',#310,#319,#167,.T.);
#404=EDGE_CURVE('',#319,#318,#168,.T.);
#405=EDGE_CURVE('',#288,#277,#169,.T.);
#406=EDGE_CURVE('',#320,#321,#266,.T.);
#407=EDGE_CURVE('',#321,#322,#170,.T.);
#408=EDGE_CURVE('',#323,#322,#267,.T.);
#409=EDGE_CURVE('',#320,#323,#171,.T.);
#410=EDGE_CURVE('',#324,#320,#172,.T.);
#411=EDGE_CURVE('',#325,#323,#173,.T.);
#412=EDGE_CURVE('',#324,#325,#174,.T.);
#413=EDGE_CURVE('',#326,#324,#268,.T.);
#414=EDGE_CURVE('',#327,#325,#269,.T.);
#415=EDGE_CURVE('',#326,#327,#175,.T.);
#416=EDGE_CURVE('',#328,#326,#176,.T.);
#417=EDGE_CURVE('',#329,#327,#177,.T.);
#418=EDGE_CURVE('',#328,#329,#178,.T.);
#419=EDGE_CURVE('',#330,#328,#270,.T.);
#420=EDGE_CURVE('',#331,#329,#271,.T.);
#421=EDGE_CURVE('',#330,#331,#179,.T.);
#422=EDGE_CURVE('',#332,#330,#180,.T.);
#423=EDGE_CURVE('',#333,#331,#181,.T.);
#424=EDGE_CURVE('',#332,#333,#182,.T.);
#425=EDGE_CURVE('',#334,#332,#272,.T.);
#426=EDGE_CURVE('',#335,#333,#273,.T.);
#427=EDGE_CURVE('',#334,#335,#183,.T.);
#428=EDGE_CURVE('',#321,#334,#184,.T.);
#429=EDGE_CURVE('',#322,#335,#185,.T.);
#430=ORIENTED_EDGE('',*,*,#336,.T.);
#431=ORIENTED_EDGE('',*,*,#337,.T.);
#432=ORIENTED_EDGE('',*,*,#338,.T.);
#433=ORIENTED_EDGE('',*,*,#339,.T.);
#434=ORIENTED_EDGE('',*,*,#337,.F.);
#435=ORIENTED_EDGE('',*,*,#340,.F.);
#436=ORIENTED_EDGE('',*,*,#341,.F.);
#437=ORIENTED_EDGE('',*,*,#342,.F.);
#438=ORIENTED_EDGE('',*,*,#336,.F.);
#439=ORIENTED_EDGE('',*,*,#343,.T.);
#440=ORIENTED_EDGE('',*,*,#344,.F.);
#441=ORIENTED_EDGE('',*,*,#345,.F.);
#442=ORIENTED_EDGE('',*,*,#346,.T.);
#443=ORIENTED_EDGE('',*,*,#347,.F.);
#444=ORIENTED_EDGE('',*,*,#340,.T.);
#445=ORIENTED_EDGE('',*,*,#348,.T.);
#446=ORIENTED_EDGE('',*,*,#349,.T.);
#447=ORIENTED_EDGE('',*,*,#350,.T.);
#448=ORIENTED_EDGE('',*,*,#351,.T.);
#449=ORIENTED_EDGE('',*,*,#352,.T.);
#450=ORIENTED_EDGE('',*,*,#353,.T.);
#451=ORIENTED_EDGE('',*,*,#350,.F.);
#452=ORIENTED_EDGE('',*,*,#354,.T.);
#453=ORIENTED_EDGE('',*,*,#355,.F.);
#454=ORIENTED_EDGE('',*,*,#356,.T.);
#455=ORIENTED_EDGE('',*,*,#357,.F.);
#456=ORIENTED_EDGE('',*,*,#358,.F.);
#457=ORIENTED_EDGE('',*,*,#359,.T.);
#458=ORIENTED_EDGE('',*,*,#360,.T.);
#459=ORIENTED_EDGE('',*,*,#361,.T.);
#460=ORIENTED_EDGE('',*,*,#353,.F.);
#461=ORIENTED_EDGE('',*,*,#362,.F.);
#462=ORIENTED_EDGE('',*,*,#363,.F.);
#463=ORIENTED_EDGE('',*,*,#354,.F.);
#464=ORIENTED_EDGE('',*,*,#347,.T.);
#465=ORIENTED_EDGE('',*,*,#364,.T.);
#466=ORIENTED_EDGE('',*,*,#365,.T.);
#467=ORIENTED_EDGE('',*,*,#341,.T.);
#468=ORIENTED_EDGE('',*,*,#364,.F.);
#469=ORIENTED_EDGE('',*,*,#346,.F.);
#470=ORIENTED_EDGE('',*,*,#366,.F.);
#471=ORIENTED_EDGE('',*,*,#367,.T.);
#472=ORIENTED_EDGE('',*,*,#368,.F.);
#473=ORIENTED_EDGE('',*,*,#369,.F.);
#474=ORIENTED_EDGE('',*,*,#370,.F.);
#475=ORIENTED_EDGE('',*,*,#356,.F.);
#476=ORIENTED_EDGE('',*,*,#371,.F.);
#477=ORIENTED_EDGE('',*,*,#372,.F.);
#478=ORIENTED_EDGE('',*,*,#355,.T.);
#479=ORIENTED_EDGE('',*,*,#363,.T.);
#480=ORIENTED_EDGE('',*,*,#373,.T.);
#481=ORIENTED_EDGE('',*,*,#371,.T.);
#482=ORIENTED_EDGE('',*,*,#374,.F.);
#483=ORIENTED_EDGE('',*,*,#375,.T.);
#484=ORIENTED_EDGE('',*,*,#348,.F.);
#485=ORIENTED_EDGE('',*,*,#375,.F.);
#486=ORIENTED_EDGE('',*,*,#376,.F.);
#487=ORIENTED_EDGE('',*,*,#377,.T.);
#488=ORIENTED_EDGE('',*,*,#360,.F.);
#489=ORIENTED_EDGE('',*,*,#377,.F.);
#490=ORIENTED_EDGE('',*,*,#378,.F.);
#491=ORIENTED_EDGE('',*,*,#379,.T.);
#492=ORIENTED_EDGE('',*,*,#349,.F.);
#493=ORIENTED_EDGE('',*,*,#379,.F.);
#494=ORIENTED_EDGE('',*,*,#380,.F.);
#495=ORIENTED_EDGE('',*,*,#381,.T.);
#496=ORIENTED_EDGE('',*,*,#361,.F.);
#497=ORIENTED_EDGE('',*,*,#381,.F.);
#498=ORIENTED_EDGE('',*,*,#382,.T.);
#499=ORIENTED_EDGE('',*,*,#383,.T.);
#500=ORIENTED_EDGE('',*,*,#366,.T.);
#501=ORIENTED_EDGE('',*,*,#345,.T.);
#502=ORIENTED_EDGE('',*,*,#383,.F.);
#503=ORIENTED_EDGE('',*,*,#384,.F.);
#504=ORIENTED_EDGE('',*,*,#385,.T.);
#505=ORIENTED_EDGE('',*,*,#386,.F.);
#506=ORIENTED_EDGE('',*,*,#367,.F.);
#507=ORIENTED_EDGE('',*,*,#387,.T.);
#508=ORIENTED_EDGE('',*,*,#357,.T.);
#509=ORIENTED_EDGE('',*,*,#370,.T.);
#510=ORIENTED_EDGE('',*,*,#388,.T.);
#511=ORIENTED_EDGE('',*,*,#389,.T.);
#512=ORIENTED_EDGE('',*,*,#390,.T.);
#513=ORIENTED_EDGE('',*,*,#387,.F.);
#514=ORIENTED_EDGE('',*,*,#391,.T.);
#515=ORIENTED_EDGE('',*,*,#392,.T.);
#516=ORIENTED_EDGE('',*,*,#393,.T.);
#517=ORIENTED_EDGE('',*,*,#389,.F.);
#518=ORIENTED_EDGE('',*,*,#394,.T.);
#519=ORIENTED_EDGE('',*,*,#394,.F.);
#520=ORIENTED_EDGE('',*,*,#391,.F.);
#521=ORIENTED_EDGE('',*,*,#388,.F.);
#522=ORIENTED_EDGE('',*,*,#369,.T.);
#523=ORIENTED_EDGE('',*,*,#395,.F.);
#524=ORIENTED_EDGE('',*,*,#384,.T.);
#525=ORIENTED_EDGE('',*,*,#382,.F.);
#526=ORIENTED_EDGE('',*,*,#344,.T.);
#527=ORIENTED_EDGE('',*,*,#396,.T.);
#528=ORIENTED_EDGE('',*,*,#397,.T.);
#529=ORIENTED_EDGE('',*,*,#390,.F.);
#530=ORIENTED_EDGE('',*,*,#398,.T.);
#531=ORIENTED_EDGE('',*,*,#399,.T.);
#532=ORIENTED_EDGE('',*,*,#358,.T.);
#533=ORIENTED_EDGE('',*,*,#393,.F.);
#534=ORIENTED_EDGE('',*,*,#400,.F.);
#535=ORIENTED_EDGE('',*,*,#401,.F.);
#536=ORIENTED_EDGE('',*,*,#398,.F.);
#537=ORIENTED_EDGE('',*,*,#397,.F.);
#538=ORIENTED_EDGE('',*,*,#402,.T.);
#539=ORIENTED_EDGE('',*,*,#403,.F.);
#540=ORIENTED_EDGE('',*,*,#385,.F.);
#541=ORIENTED_EDGE('',*,*,#395,.T.);
#542=ORIENTED_EDGE('',*,*,#368,.T.);
#543=ORIENTED_EDGE('',*,*,#386,.T.);
#544=ORIENTED_EDGE('',*,*,#403,.T.);
#545=ORIENTED_EDGE('',*,*,#404,.T.);
#546=ORIENTED_EDGE('',*,*,#400,.T.);
#547=ORIENTED_EDGE('',*,*,#392,.F.);
#548=ORIENTED_EDGE('',*,*,#339,.F.);
#549=ORIENTED_EDGE('',*,*,#405,.F.);
#550=ORIENTED_EDGE('',*,*,#351,.F.);
#551=ORIENTED_EDGE('',*,*,#359,.F.);
#552=ORIENTED_EDGE('',*,*,#399,.F.);
#553=ORIENTED_EDGE('',*,*,#401,.T.);
#554=ORIENTED_EDGE('',*,*,#404,.F.);
#555=ORIENTED_EDGE('',*,*,#402,.F.);
#556=ORIENTED_EDGE('',*,*,#396,.F.);
#557=ORIENTED_EDGE('',*,*,#343,.F.);
#558=ORIENTED_EDGE('',*,*,#406,.T.);
#559=ORIENTED_EDGE('',*,*,#407,.T.);
#560=ORIENTED_EDGE('',*,*,#408,.F.);
#561=ORIENTED_EDGE('',*,*,#409,.F.);
#562=ORIENTED_EDGE('',*,*,#410,.T.);
#563=ORIENTED_EDGE('',*,*,#409,.T.);
#564=ORIENTED_EDGE('',*,*,#411,.F.);
#565=ORIENTED_EDGE('',*,*,#412,.F.);
#566=ORIENTED_EDGE('',*,*,#413,.T.);
#567=ORIENTED_EDGE('',*,*,#412,.T.);
#568=ORIENTED_EDGE('',*,*,#414,.F.);
#569=ORIENTED_EDGE('',*,*,#415,.F.);
#570=ORIENTED_EDGE('',*,*,#416,.T.);
#571=ORIENTED_EDGE('',*,*,#415,.T.);
#572=ORIENTED_EDGE('',*,*,#417,.F.);
#573=ORIENTED_EDGE('',*,*,#418,.F.);
#574=ORIENTED_EDGE('',*,*,#419,.T.);
#575=ORIENTED_EDGE('',*,*,#418,.T.);
#576=ORIENTED_EDGE('',*,*,#420,.F.);
#577=ORIENTED_EDGE('',*,*,#421,.F.);
#578=ORIENTED_EDGE('',*,*,#422,.T.);
#579=ORIENTED_EDGE('',*,*,#421,.T.);
#580=ORIENTED_EDGE('',*,*,#423,.F.);
#581=ORIENTED_EDGE('',*,*,#424,.F.);
#582=ORIENTED_EDGE('',*,*,#425,.T.);
#583=ORIENTED_EDGE('',*,*,#424,.T.);
#584=ORIENTED_EDGE('',*,*,#426,.F.);
#585=ORIENTED_EDGE('',*,*,#427,.F.);
#586=ORIENTED_EDGE('',*,*,#428,.T.);
#587=ORIENTED_EDGE('',*,*,#427,.T.);
#588=ORIENTED_EDGE('',*,*,#429,.F.);
#589=ORIENTED_EDGE('',*,*,#407,.F.);
#590=ORIENTED_EDGE('',*,*,#429,.T.);
#591=ORIENTED_EDGE('',*,*,#426,.T.);
#592=ORIENTED_EDGE('',*,*,#423,.T.);
#593=ORIENTED_EDGE('',*,*,#420,.T.);
#594=ORIENTED_EDGE('',*,*,#417,.T.);
#595=ORIENTED_EDGE('',*,*,#414,.T.);
#596=ORIENTED_EDGE('',*,*,#411,.T.);
#597=ORIENTED_EDGE('',*,*,#408,.T.);
#598=ORIENTED_EDGE('',*,*,#380,.T.);
#599=ORIENTED_EDGE('',*,*,#378,.T.);
#600=ORIENTED_EDGE('',*,*,#376,.T.);
#601=ORIENTED_EDGE('',*,*,#374,.T.);
#602=ORIENTED_EDGE('',*,*,#428,.F.);
#603=ORIENTED_EDGE('',*,*,#406,.F.);
#604=ORIENTED_EDGE('',*,*,#410,.F.);
#605=ORIENTED_EDGE('',*,*,#413,.F.);
#606=ORIENTED_EDGE('',*,*,#416,.F.);
#607=ORIENTED_EDGE('',*,*,#419,.F.);
#608=ORIENTED_EDGE('',*,*,#422,.F.);
#609=ORIENTED_EDGE('',*,*,#425,.F.);
#610=ORIENTED_EDGE('',*,*,#405,.T.);
#611=ORIENTED_EDGE('',*,*,#338,.F.);
#612=ORIENTED_EDGE('',*,*,#342,.T.);
#613=ORIENTED_EDGE('',*,*,#365,.F.);
#614=ORIENTED_EDGE('',*,*,#372,.T.);
#615=ORIENTED_EDGE('',*,*,#373,.F.);
#616=ORIENTED_EDGE('',*,*,#362,.T.);
#617=ORIENTED_EDGE('',*,*,#352,.F.);
#618=CYLINDRICAL_SURFACE('',#684,2.358);
#619=CYLINDRICAL_SURFACE('',#692,2.358);
#620=CYLINDRICAL_SURFACE('',#700,2.358);
#621=CYLINDRICAL_SURFACE('',#705,2.358);
#622=CYLINDRICAL_SURFACE('',#707,1.99999999999999);
#623=CYLINDRICAL_SURFACE('',#709,1.99999999999999);
#624=CYLINDRICAL_SURFACE('',#711,1.99999999999999);
#625=CYLINDRICAL_SURFACE('',#713,2.);
#626=CYLINDRICAL_SURFACE('',#715,1.886);
#627=CYLINDRICAL_SURFACE('',#718,1.886);
#628=CYLINDRICAL_SURFACE('',#723,1.886);
#629=CYLINDRICAL_SURFACE('',#726,2.316);
#630=CYLINDRICAL_SURFACE('',#728,2.717);
#631=CYLINDRICAL_SURFACE('',#734,3.37499999999999);
#632=CYLINDRICAL_SURFACE('',#738,3.37500000000001);
#633=CYLINDRICAL_SURFACE('',#742,3.37500000000002);
#634=CYLINDRICAL_SURFACE('',#746,3.37500000000002);
#635=ADVANCED_FACE('',(#48),#618,.T.);
#636=ADVANCED_FACE('',(#49),#31,.T.);
#637=ADVANCED_FACE('',(#50,#22,#23),#32,.T.);
#638=ADVANCED_FACE('',(#51),#619,.T.);
#639=ADVANCED_FACE('',(#52,#24,#25),#33,.T.);
#640=ADVANCED_FACE('',(#53),#34,.T.);
#641=ADVANCED_FACE('',(#54),#620,.T.);
#642=ADVANCED_FACE('',(#55),#35,.T.);
#643=ADVANCED_FACE('',(#56),#621,.T.);
#644=ADVANCED_FACE('',(#57),#622,.F.);
#645=ADVANCED_FACE('',(#58),#623,.F.);
#646=ADVANCED_FACE('',(#59),#624,.F.);
#647=ADVANCED_FACE('',(#60),#625,.F.);
#648=ADVANCED_FACE('',(#61),#626,.F.);
#649=ADVANCED_FACE('',(#62),#36,.T.);
#650=ADVANCED_FACE('',(#63),#627,.F.);
#651=ADVANCED_FACE('',(#64),#15,.T.);
#652=ADVANCED_FACE('',(#65),#628,.F.);
#653=ADVANCED_FACE('',(#66),#37,.T.);
#654=ADVANCED_FACE('',(#67),#629,.F.);
#655=ADVANCED_FACE('',(#68),#630,.F.);
#656=ADVANCED_FACE('',(#69),#38,.T.);
#657=ADVANCED_FACE('',(#70),#39,.T.);
#658=ADVANCED_FACE('',(#71),#40,.T.);
#659=ADVANCED_FACE('',(#72),#41,.T.);
#660=ADVANCED_FACE('',(#73),#631,.T.);
#661=ADVANCED_FACE('',(#74),#42,.T.);
#662=ADVANCED_FACE('',(#75),#632,.T.);
#663=ADVANCED_FACE('',(#76),#43,.T.);
#664=ADVANCED_FACE('',(#77),#633,.T.);
#665=ADVANCED_FACE('',(#78),#44,.T.);
#666=ADVANCED_FACE('',(#79),#634,.T.);
#667=ADVANCED_FACE('',(#80),#45,.T.);
#668=ADVANCED_FACE('',(#81,#26,#27,#28,#29),#46,.T.);
#669=ADVANCED_FACE('',(#82,#30),#47,.F.);
#670=CLOSED_SHELL('',(#635,#636,#637,#638,#639,#640,#641,#642,#643,#644,
#645,#646,#647,#648,#649,#650,#651,#652,#653,#654,#655,#656,#657,#658,#659,
#660,#661,#662,#663,#664,#665,#666,#667,#668,#669));
#671=DERIVED_UNIT_ELEMENT(#673,1.);
#672=DERIVED_UNIT_ELEMENT(#1184,-3.);
#673=(
MASS_UNIT()
NAMED_UNIT(*)
SI_UNIT(.KILO.,.GRAM.)
);
#674=DERIVED_UNIT((#671,#672));
#675=MEASURE_REPRESENTATION_ITEM('density measure',
POSITIVE_RATIO_MEASURE(7850.),#674);
#676=PROPERTY_DEFINITION_REPRESENTATION(#681,#678);
#677=PROPERTY_DEFINITION_REPRESENTATION(#682,#679);
#678=REPRESENTATION('material name',(#680),#1181);
#679=REPRESENTATION('density',(#675),#1181);
#680=DESCRIPTIVE_REPRESENTATION_ITEM('Steel','Steel');
#681=PROPERTY_DEFINITION('material property','material name',#1191);
#682=PROPERTY_DEFINITION('material property','density of part',#1191);
#683=AXIS2_PLACEMENT_3D('',#949,#752,#753);
#684=AXIS2_PLACEMENT_3D('',#950,#754,#755);
#685=AXIS2_PLACEMENT_3D('',#953,#756,#757);
#686=AXIS2_PLACEMENT_3D('',#957,#759,#760);
#687=AXIS2_PLACEMENT_3D('',#959,#762,#763);
#688=AXIS2_PLACEMENT_3D('',#965,#767,#768);
#689=AXIS2_PLACEMENT_3D('',#974,#773,#774);
#690=AXIS2_PLACEMENT_3D('',#976,#775,#776);
#691=AXIS2_PLACEMENT_3D('',#978,#777,#778);
#692=AXIS2_PLACEMENT_3D('',#979,#779,#780);
#693=AXIS2_PLACEMENT_3D('',#982,#781,#782);
#694=AXIS2_PLACEMENT_3D('',#986,#784,#785);
#695=AXIS2_PLACEMENT_3D('',#988,#787,#788);
#696=AXIS2_PLACEMENT_3D('',#992,#790,#791);
#697=AXIS2_PLACEMENT_3D('',#1001,#796,#797);
#698=AXIS2_PLACEMENT_3D('',#1003,#798,#799);
#699=AXIS2_PLACEMENT_3D('',#1004,#800,#801);
#700=AXIS2_PLACEMENT_3D('',#1008,#804,#805);
#701=AXIS2_PLACEMENT_3D('',#1011,#807,#808);
#702=AXIS2_PLACEMENT_3D('',#1012,#809,#810);
#703=AXIS2_PLACEMENT_3D('',#1014,#811,#812);
#704=AXIS2_PLACEMENT_3D('',#1021,#816,#817);
#705=AXIS2_PLACEMENT_3D('',#1025,#820,#821);
#706=AXIS2_PLACEMENT_3D('',#1026,#822,#823);
#707=AXIS2_PLACEMENT_3D('',#1027,#824,#825);
#708=AXIS2_PLACEMENT_3D('',#1029,#826,#827);
#709=AXIS2_PLACEMENT_3D('',#1031,#829,#830);
#710=AXIS2_PLACEMENT_3D('',#1033,#831,#832);
#711=AXIS2_PLACEMENT_3D('',#1035,#834,#835);
#712=AXIS2_PLACEMENT_3D('',#1037,#836,#837);
#713=AXIS2_PLACEMENT_3D('',#1039,#839,#840);
#714=AXIS2_PLACEMENT_3D('',#1041,#841,#842);
#715=AXIS2_PLACEMENT_3D('',#1043,#844,#845);
#716=AXIS2_PLACEMENT_3D('',#1056,#847,#848);
#717=AXIS2_PLACEMENT_3D('',#1058,#849,#850);
#718=AXIS2_PLACEMENT_3D('',#1062,#853,#854);
#719=AXIS2_PLACEMENT_3D('',#1064,#855,#856);
#720=AXIS2_PLACEMENT_3D('',#1098,#858,#859);
#721=AXIS2_PLACEMENT_3D('',#1099,#860,#861);
#722=AXIS2_PLACEMENT_3D('',#1100,#862,#863);
#723=AXIS2_PLACEMENT_3D('',#1101,#864,#865);
#724=AXIS2_PLACEMENT_3D('',#1104,#866,#867);
#725=AXIS2_PLACEMENT_3D('',#1107,#870,#871);
#726=AXIS2_PLACEMENT_3D('',#1109,#873,#874);
#727=AXIS2_PLACEMENT_3D('',#1111,#875,#876);
#728=AXIS2_PLACEMENT_3D('',#1113,#878,#879);
#729=AXIS2_PLACEMENT_3D('',#1116,#881,#882);
#730=AXIS2_PLACEMENT_3D('',#1117,#883,#884);
#731=AXIS2_PLACEMENT_3D('',#1121,#887,#888);
#732=AXIS2_PLACEMENT_3D('',#1125,#891,#892);
#733=AXIS2_PLACEMENT_3D('',#1127,#894,#895);
#734=AXIS2_PLACEMENT_3D('',#1129,#897,#898);
#735=AXIS2_PLACEMENT_3D('',#1132,#899,#900);
#736=AXIS2_PLACEMENT_3D('',#1136,#902,#903);
#737=AXIS2_PLACEMENT_3D('',#1138,#905,#906);
#738=AXIS2_PLACEMENT_3D('',#1144,#910,#911);
#739=AXIS2_PLACEMENT_3D('',#1146,#912,#913);
#740=AXIS2_PLACEMENT_3D('',#1148,#914,#915);
#741=AXIS2_PLACEMENT_3D('',#1150,#917,#918);
#742=AXIS2_PLACEMENT_3D('',#1156,#922,#923);
#743=AXIS2_PLACEMENT_3D('',#1158,#924,#925);
#744=AXIS2_PLACEMENT_3D('',#1160,#926,#927);
#745=AXIS2_PLACEMENT_3D('',#1162,#929,#930);
#746=AXIS2_PLACEMENT_3D('',#1168,#934,#935);
#747=AXIS2_PLACEMENT_3D('',#1170,#936,#937);
#748=AXIS2_PLACEMENT_3D('',#1172,#938,#939);
#749=AXIS2_PLACEMENT_3D('',#1174,#941,#942);
#750=AXIS2_PLACEMENT_3D('',#1177,#945,#946);
#751=AXIS2_PLACEMENT_3D('',#1178,#947,#948);
#752=DIRECTION('axis',(0.,0.,1.));
#753=DIRECTION('refdir',(1.,0.,0.));
#754=DIRECTION('center_axis',(0.,0.,-1.));
#755=DIRECTION('ref_axis',(0.707106781186553,0.707106781186542,0.));
#756=DIRECTION('center_axis',(0.,0.,1.));
#757=DIRECTION('ref_axis',(0.707106781186553,0.707106781186542,0.));
#758=DIRECTION('',(0.,0.,1.));
#759=DIRECTION('center_axis',(0.,0.,1.));
#760=DIRECTION('ref_axis',(0.707106781186553,0.707106781186542,0.));
#761=DIRECTION('',(0.,0.,-1.));
#762=DIRECTION('center_axis',(0.,1.,0.));
#763=DIRECTION('ref_axis',(1.,0.,0.));
#764=DIRECTION('',(1.,0.,0.));
#765=DIRECTION('',(0.,0.,-1.));
#766=DIRECTION('',(-1.,0.,0.));
#767=DIRECTION('center_axis',(0.,0.,-1.));
#768=DIRECTION('ref_axis',(-1.,0.,0.));
#769=DIRECTION('',(0.,-1.,0.));
#770=DIRECTION('',(1.,0.,0.));
#771=DIRECTION('',(0.803892111915141,0.594775144403845,0.));
#772=DIRECTION('',(0.,1.,0.));
#773=DIRECTION('center_axis',(0.,0.,1.));
#774=DIRECTION('ref_axis',(-0.707106781186547,0.707106781186547,0.));
#775=DIRECTION('center_axis',(0.,0.,1.));
#776=DIRECTION('ref_axis',(-1.,0.,0.));
#777=DIRECTION('center_axis',(0.,0.,1.));
#778=DIRECTION('ref_axis',(-1.,0.,0.));
#779=DIRECTION('center_axis',(0.,0.,-1.));
#780=DIRECTION('ref_axis',(0.707106781186543,-0.707106781186552,0.));
#781=DIRECTION('center_axis',(0.,0.,1.));
#782=DIRECTION('ref_axis',(0.707106781186543,-0.707106781186552,0.));
#783=DIRECTION('',(0.,0.,1.));
#784=DIRECTION('center_axis',(0.,0.,1.));
#785=DIRECTION('ref_axis',(0.707106781186543,-0.707106781186552,0.));
#786=DIRECTION('',(0.,0.,-1.));
#787=DIRECTION('center_axis',(0.,0.,-1.));
#788=DIRECTION('ref_axis',(-1.,0.,0.));
#789=DIRECTION('',(-1.,0.,0.));
#790=DIRECTION('center_axis',(0.,0.,1.));
#791=DIRECTION('ref_axis',(-0.707106781186546,-0.707106781186549,0.));
#792=DIRECTION('',(0.,1.,0.));
#793=DIRECTION('',(-0.803892111915141,-0.594775144403845,0.));
#794=DIRECTION('',(-1.,0.,0.));
#795=DIRECTION('',(0.,-1.,0.));
#796=DIRECTION('center_axis',(0.,0.,1.));
#797=DIRECTION('ref_axis',(-1.,0.,0.));
#798=DIRECTION('center_axis',(0.,0.,1.));
#799=DIRECTION('ref_axis',(-1.,0.,0.));
#800=DIRECTION('center_axis',(0.,-1.,0.));
#801=DIRECTION('ref_axis',(-1.,0.,0.));
#802=DIRECTION('',(1.,0.,0.));
#803=DIRECTION('',(0.,0.,1.));
#804=DIRECTION('center_axis',(0.,0.,-1.));
#805=DIRECTION('ref_axis',(-0.707106781186547,0.707106781186547,0.));
#806=DIRECTION('',(0.,0.,1.));
#807=DIRECTION('center_axis',(0.,0.,1.));
#808=DIRECTION('ref_axis',(-0.707106781186547,0.707106781186547,0.));
#809=DIRECTION('center_axis',(-1.,0.,0.));
#810=DIRECTION('ref_axis',(0.,1.,0.));
#811=DIRECTION('center_axis',(-1.,0.,0.));
#812=DIRECTION('ref_axis',(0.,-1.,-3.54917629359517E-16));
#813=DIRECTION('',(0.,0.,-1.));
#814=DIRECTION('',(0.,1.,0.));
#815=DIRECTION('',(0.,0.,-1.));
#816=DIRECTION('center_axis',(-1.,0.,0.));
#817=DIRECTION('ref_axis',(0.,1.,-5.91529382265862E-17));
#818=DIRECTION('',(0.,0.,-1.));
#819=DIRECTION('',(0.,-1.,0.));
#820=DIRECTION('center_axis',(0.,0.,-1.));
#821=DIRECTION('ref_axis',(-0.707106781186546,-0.707106781186549,0.));
#822=DIRECTION('center_axis',(0.,0.,1.));
#823=DIRECTION('ref_axis',(-0.707106781186546,-0.707106781186549,0.));
#824=DIRECTION('center_axis',(0.,0.,-1.));
#825=DIRECTION('ref_axis',(-1.,0.,0.));
#826=DIRECTION('center_axis',(0.,0.,-1.));
#827=DIRECTION('ref_axis',(-1.,0.,0.));
#828=DIRECTION('',(0.,0.,-1.));
#829=DIRECTION('center_axis',(0.,0.,-1.));
#830=DIRECTION('ref_axis',(-1.,0.,0.));
#831=DIRECTION('center_axis',(0.,0.,-1.));
#832=DIRECTION('ref_axis',(-1.,0.,0.));
#833=DIRECTION('',(0.,0.,-1.));
#834=DIRECTION('center_axis',(0.,0.,-1.));
#835=DIRECTION('ref_axis',(-1.,0.,0.));
#836=DIRECTION('center_axis',(0.,0.,-1.));
#837=DIRECTION('ref_axis',(-1.,0.,0.));
#838=DIRECTION('',(0.,0.,-1.));
#839=DIRECTION('center_axis',(0.,0.,-1.));
#840=DIRECTION('ref_axis',(-1.,0.,0.));
#841=DIRECTION('center_axis',(0.,0.,-1.));
#842=DIRECTION('ref_axis',(-1.,0.,0.));
#843=DIRECTION('',(0.,0.,-1.));
#844=DIRECTION('center_axis',(-0.803892111915141,-0.594775144403845,0.));
#845=DIRECTION('ref_axis',(0.420569537889166,-0.568437563677571,0.707106781186548));
#846=DIRECTION('',(-0.803892111915141,-0.594775144403845,0.));
#847=DIRECTION('center_axis',(-0.594775144403845,0.803892111915141,0.));
#848=DIRECTION('ref_axis',(0.803892111915141,0.594775144403845,0.));
#849=DIRECTION('center_axis',(-0.594775144403845,0.803892111915141,0.));
#850=DIRECTION('ref_axis',(-0.803892111915141,-0.594775144403845,-7.12794753661379E-17));
#851=DIRECTION('',(0.,0.,-1.));
#852=DIRECTION('',(0.803892111915141,0.594775144403845,0.));
#853=DIRECTION('center_axis',(0.803892111915141,0.594775144403845,0.));
#854=DIRECTION('ref_axis',(-0.420569537889166,0.568437563677571,0.707106781186548));
#855=DIRECTION('center_axis',(0.803892111915141,0.594775144403845,0.));
#856=DIRECTION('ref_axis',(-0.594775144403845,0.803892111915141,0.));
#857=DIRECTION('',(0.803892111915141,0.594775144403845,0.));
#858=DIRECTION('center_axis',(0.,0.,-1.));
#859=DIRECTION('ref_axis',(-0.594775144403845,0.803892111915141,0.));
#860=DIRECTION('center_axis',(0.9241495173103,-0.382030979967777,0.));
#861=DIRECTION('ref_axis',(0.382030979967777,0.9241495173103,0.));
#862=DIRECTION('center_axis',(-0.594775144403845,0.803892111915141,0.));
#863=DIRECTION('ref_axis',(0.803892111915141,0.594775144403845,0.));
#864=DIRECTION('center_axis',(0.,0.,-1.));
#865=DIRECTION('ref_axis',(-0.313135663958019,0.949708405752824,0.));
#866=DIRECTION('center_axis',(0.,0.,-1.));
#867=DIRECTION('ref_axis',(-0.313135663958019,0.949708405752824,0.));
#868=DIRECTION('',(0.,0.,1.));
#869=DIRECTION('',(0.,0.,-1.));
#870=DIRECTION('center_axis',(0.594775144403845,-0.803892111915141,0.));
#871=DIRECTION('ref_axis',(-0.803892111915141,-0.594775144403845,0.));
#872=DIRECTION('',(-0.803892111915141,-0.594775144403845,0.));
#873=DIRECTION('center_axis',(-1.,0.,0.));
#874=DIRECTION('ref_axis',(0.,-0.707106781186546,0.707106781186549));
#875=DIRECTION('center_axis',(1.,0.,0.));
#876=DIRECTION('ref_axis',(0.,-0.707106781186546,0.707106781186549));
#877=DIRECTION('',(-1.,0.,0.));
#878=DIRECTION('center_axis',(1.,0.,0.));
#879=DIRECTION('ref_axis',(0.,0.707106781186547,0.707106781186547));
#880=DIRECTION('',(1.,0.,0.));
#881=DIRECTION('center_axis',(1.,0.,0.));
#882=DIRECTION('ref_axis',(0.,0.707106781186547,0.707106781186547));
#883=DIRECTION('center_axis',(0.,-1.,0.));
#884=DIRECTION('ref_axis',(-1.,0.,0.));
#885=DIRECTION('',(-1.,0.,0.));
#886=DIRECTION('',(0.,0.,-1.));
#887=DIRECTION('center_axis',(0.,1.,0.));
#888=DIRECTION('ref_axis',(1.,0.,0.));
#889=DIRECTION('',(0.,0.,-1.));
#890=DIRECTION('',(1.,0.,0.));
#891=DIRECTION('center_axis',(0.,0.,-1.));
#892=DIRECTION('ref_axis',(-1.,0.,0.));
#893=DIRECTION('',(0.,-1.,0.));
#894=DIRECTION('center_axis',(1.,0.,0.));
#895=DIRECTION('ref_axis',(0.,-1.,0.));
#896=DIRECTION('',(0.,1.,0.));
#897=DIRECTION('center_axis',(0.,0.,1.));
#898=DIRECTION('ref_axis',(0.,-1.,0.));
#899=DIRECTION('center_axis',(0.,0.,1.));
#900=DIRECTION('ref_axis',(0.,-1.,0.));
#901=DIRECTION('',(0.,0.,1.));
#902=DIRECTION('center_axis',(0.,0.,1.));
#903=DIRECTION('ref_axis',(0.,-1.,0.));
#904=DIRECTION('',(0.,0.,1.));
#905=DIRECTION('center_axis',(0.,-1.,0.));
#906=DIRECTION('ref_axis',(1.,0.,0.));
#907=DIRECTION('',(1.,0.,0.));
#908=DIRECTION('',(1.,0.,0.));
#909=DIRECTION('',(0.,0.,1.));
#910=DIRECTION('center_axis',(0.,0.,1.));
#911=DIRECTION('ref_axis',(-1.,-2.63163976207444E-15,0.));
#912=DIRECTION('center_axis',(0.,0.,1.));
#913=DIRECTION('ref_axis',(-1.,-2.63163976207444E-15,0.));
#914=DIRECTION('center_axis',(0.,0.,1.));
#915=DIRECTION('ref_axis',(-1.,-2.63163976207444E-15,0.));
#916=DIRECTION('',(0.,0.,1.));
#917=DIRECTION('center_axis',(-1.,0.,0.));
#918=DIRECTION('ref_axis',(0.,-1.,0.));
#919=DIRECTION('',(0.,-1.,0.));
#920=DIRECTION('',(0.,-1.,0.));
#921=DIRECTION('',(0.,0.,1.));
#922=DIRECTION('center_axis',(0.,0.,1.));
#923=DIRECTION('ref_axis',(-5.26327952414886E-15,1.,0.));
#924=DIRECTION('center_axis',(0.,0.,1.));
#925=DIRECTION('ref_axis',(-5.26327952414886E-15,1.,0.));
#926=DIRECTION('center_axis',(0.,0.,1.));
#927=DIRECTION('ref_axis',(-5.26327952414886E-15,1.,0.));
#928=DIRECTION('',(0.,0.,1.));
#929=DIRECTION('center_axis',(-7.15532941008181E-17,1.,0.));
#930=DIRECTION('ref_axis',(-1.,-7.15532941008181E-17,0.));
#931=DIRECTION('',(-1.,-7.15532941008181E-17,0.));
#932=DIRECTION('',(-1.,-7.15532941008181E-17,0.));
#933=DIRECTION('',(0.,0.,1.));
#934=DIRECTION('center_axis',(0.,0.,1.));
#935=DIRECTION('ref_axis',(1.,2.63163976207443E-15,0.));
#936=DIRECTION('center_axis',(0.,0.,1.));
#937=DIRECTION('ref_axis',(1.,2.63163976207443E-15,0.));
#938=DIRECTION('center_axis',(0.,0.,1.));
#939=DIRECTION('ref_axis',(1.,2.63163976207443E-15,0.));
#940=DIRECTION('',(0.,0.,1.));
#941=DIRECTION('center_axis',(1.,0.,0.));
#942=DIRECTION('ref_axis',(0.,1.,0.));
#943=DIRECTION('',(0.,1.,0.));
#944=DIRECTION('',(0.,1.,0.));
#945=DIRECTION('center_axis',(0.,0.,1.));
#946=DIRECTION('ref_axis',(-1.,0.,0.));
#947=DIRECTION('center_axis',(0.,0.,1.));
#948=DIRECTION('ref_axis',(-1.,0.,0.));
#949=CARTESIAN_POINT('',(0.,0.,0.));
#950=CARTESIAN_POINT('Origin',(180.142,60.142,42.));
#951=CARTESIAN_POINT('',(182.5,60.142,40.5));
#952=CARTESIAN_POINT('',(180.142,62.5,40.5));
#953=CARTESIAN_POINT('Origin',(180.142,60.142,40.5));
#954=CARTESIAN_POINT('',(180.142,62.5,42.));
#955=CARTESIAN_POINT('',(180.142,62.5,42.));
#956=CARTESIAN_POINT('',(182.5,60.142,42.));
#957=CARTESIAN_POINT('Origin',(180.142,60.142,42.));
#958=CARTESIAN_POINT('',(182.5,60.142,42.));
#959=CARTESIAN_POINT('Origin',(56.6217637166098,62.5,42.));
#960=CARTESIAN_POINT('',(58.9797637166098,62.5,40.5));
#961=CARTESIAN_POINT('',(56.6217637166098,62.5,40.5));
#962=CARTESIAN_POINT('',(58.9797637166098,62.5,42.));
#963=CARTESIAN_POINT('',(58.9797637166098,62.5,42.));
#964=CARTESIAN_POINT('',(88.0913227874574,62.5,42.));
#965=CARTESIAN_POINT('Origin',(119.560881858305,14.,40.5));
#966=CARTESIAN_POINT('',(182.5,31.3028455202939,40.5));
#967=CARTESIAN_POINT('',(182.5,62.5,40.5));
#968=CARTESIAN_POINT('',(60.8521134011487,31.3028455202939,40.5));
#969=CARTESIAN_POINT('',(90.2268295728418,31.3028455202939,40.5));
#970=CARTESIAN_POINT('',(56.6217637166098,28.1729393958188,40.5));
#971=CARTESIAN_POINT('',(73.009568630104,40.2977741708047,40.5));
#972=CARTESIAN_POINT('',(56.6217637166098,60.142,40.5));
#973=CARTESIAN_POINT('',(56.6217637166098,-34.5,40.5));
#974=CARTESIAN_POINT('Origin',(58.9797637166098,60.142,40.5));
#975=CARTESIAN_POINT('',(177.992750817033,60.,40.5));
#976=CARTESIAN_POINT('Origin',(175.992750817033,60.,40.5));
#977=CARTESIAN_POINT('',(64.4654161822705,60.,40.5));
#978=CARTESIAN_POINT('Origin',(62.4654161822705,60.,40.5));
#979=CARTESIAN_POINT('Origin',(180.142,-32.142,42.));
#980=CARTESIAN_POINT('',(180.142,-34.5,40.5));
#981=CARTESIAN_POINT('',(182.5,-32.142,40.5));
#982=CARTESIAN_POINT('Origin',(180.142,-32.142,40.5));
#983=CARTESIAN_POINT('',(182.5,-32.142,42.));
#984=CARTESIAN_POINT('',(182.5,-32.142,42.));
#985=CARTESIAN_POINT('',(180.142,-34.5,42.));
#986=CARTESIAN_POINT('Origin',(180.142,-32.142,42.));
#987=CARTESIAN_POINT('',(180.142,-34.5,42.));
#988=CARTESIAN_POINT('Origin',(119.560881858305,14.,40.5));
#989=CARTESIAN_POINT('',(58.9797637166098,-34.5,40.5));
#990=CARTESIAN_POINT('',(182.5,-34.5,40.5));
#991=CARTESIAN_POINT('',(56.6217637166098,-32.142,40.5));
#992=CARTESIAN_POINT('Origin',(58.9797637166098,-32.142,40.5));
#993=CARTESIAN_POINT('',(56.6217637166098,22.2295492161929,40.5));
#994=CARTESIAN_POINT('',(56.6217637166098,-34.5,40.5));
#995=CARTESIAN_POINT('',(60.7230983227571,25.2640010368587,40.5));
#996=CARTESIAN_POINT('',(77.853515270096,37.9382717039492,40.5));
#997=CARTESIAN_POINT('',(182.5,25.2640010368587,40.5));
#998=CARTESIAN_POINT('',(151.030440929152,25.2640010368587,40.5));
#999=CARTESIAN_POINT('',(182.5,62.5,40.5));
#1000=CARTESIAN_POINT('',(182.,-32.,40.5));
#1001=CARTESIAN_POINT('Origin',(180.,-32.,40.5));
#1002=CARTESIAN_POINT('',(61.1217637166098,-32.,40.5));
#1003=CARTESIAN_POINT('Origin',(59.1217637166098,-32.,40.5));
#1004=CARTESIAN_POINT('Origin',(182.5,-34.5,42.));
#1005=CARTESIAN_POINT('',(58.9797637166098,-34.5,42.));
#1006=CARTESIAN_POINT('',(151.030440929152,-34.5,42.));
#1007=CARTESIAN_POINT('',(58.9797637166098,-34.5,42.));
#1008=CARTESIAN_POINT('Origin',(58.9797637166098,60.142,42.));
#1009=CARTESIAN_POINT('',(56.6217637166098,60.142,42.));
#1010=CARTESIAN_POINT('',(56.6217637166098,60.142,42.));
#1011=CARTESIAN_POINT('Origin',(58.9797637166098,60.142,42.));
#1012=CARTESIAN_POINT('Origin',(56.6217637166098,-34.5,42.));
#1013=CARTESIAN_POINT('',(56.6217637166098,25.8268534322349,38.614));
#1014=CARTESIAN_POINT('Origin',(56.6217637166098,28.1729393958189,38.614));
#1015=CARTESIAN_POINT('',(56.6217637166098,25.8268534322349,15.5));
#1016=CARTESIAN_POINT('',(56.6217637166098,25.8268534322349,40.5));
#1017=CARTESIAN_POINT('',(56.6217637166098,24.5756351797769,15.5));
#1018=CARTESIAN_POINT('',(56.6217637166098,-34.5,15.5));
#1019=CARTESIAN_POINT('',(56.6217637166098,24.5756351797769,38.614));
#1020=CARTESIAN_POINT('',(56.6217637166098,24.5756351797769,40.5));
#1021=CARTESIAN_POINT('Origin',(56.6217637166098,22.2295492161929,38.614));
#1022=CARTESIAN_POINT('',(56.6217637166098,-32.142,42.));
#1023=CARTESIAN_POINT('',(56.6217637166098,-32.142,42.));
#1024=CARTESIAN_POINT('',(56.6217637166098,-10.25,42.));
#1025=CARTESIAN_POINT('Origin',(58.9797637166098,-32.142,42.));
#1026=CARTESIAN_POINT('Origin',(58.9797637166098,-32.142,42.));
#1027=CARTESIAN_POINT('Origin',(175.992750817033,60.,45.));
#1028=CARTESIAN_POINT('',(177.992750817033,60.,45.));
#1029=CARTESIAN_POINT('Origin',(175.992750817033,60.,45.));
#1030=CARTESIAN_POINT('',(177.992750817033,60.,45.));
#1031=CARTESIAN_POINT('Origin',(180.,-32.,45.));
#1032=CARTESIAN_POINT('',(182.,-32.,45.));
#1033=CARTESIAN_POINT('Origin',(180.,-32.,45.));
#1034=CARTESIAN_POINT('',(182.,-32.,45.));
#1035=CARTESIAN_POINT('Origin',(62.4654161822705,60.,45.));
#1036=CARTESIAN_POINT('',(64.4654161822705,60.,45.));
#1037=CARTESIAN_POINT('Origin',(62.4654161822705,60.,45.));
#1038=CARTESIAN_POINT('',(64.4654161822705,60.,45.));
#1039=CARTESIAN_POINT('Origin',(59.1217637166098,-32.,45.));
#1040=CARTESIAN_POINT('',(61.1217637166098,-32.,45.));
#1041=CARTESIAN_POINT('Origin',(59.1217637166098,-32.,45.));
#1042=CARTESIAN_POINT('',(61.1217637166098,-32.,45.));
#1043=CARTESIAN_POINT('Origin',(73.009568630104,40.2977741708047,38.614));
#1044=CARTESIAN_POINT('',(60.9472031521056,29.0271135501357,38.614));
#1045=CARTESIAN_POINT('Ctrl Pts',(60.8521134011487,31.3028455202939,40.5));
#1046=CARTESIAN_POINT('Ctrl Pts',(60.9062804734974,30.9758103595558,40.5));
#1047=CARTESIAN_POINT('Ctrl Pts',(60.9638108093503,30.6295060791688,40.4267420487256));
#1048=CARTESIAN_POINT('Ctrl Pts',(61.0499617074851,30.0041247065731,40.1324871684918));
#1049=CARTESIAN_POINT('Ctrl Pts',(61.0780534904984,29.724989779197,39.9114585840373));
#1050=CARTESIAN_POINT('Ctrl Pts',(61.0786939940321,29.3966614696549,39.5123996238883));
#1051=CARTESIAN_POINT('Ctrl Pts',(61.0702213338443,29.2873146114549,39.3420685137048));
#1052=CARTESIAN_POINT('Ctrl Pts',(61.0272019368336,29.1192519123584,38.9811238790342));
#1053=CARTESIAN_POINT('Ctrl Pts',(60.9922986695513,29.0604783418822,38.7905798215237));
#1054=CARTESIAN_POINT('Ctrl Pts',(60.9472031521056,29.0271135501357,38.614));
#1055=CARTESIAN_POINT('',(74.1313145524496,38.7816336477328,38.614));
#1056=CARTESIAN_POINT('Origin',(56.6217637166098,25.8268534322349,40.5));
#1057=CARTESIAN_POINT('',(60.8927772873788,28.9868455202939,38.184));
#1058=CARTESIAN_POINT('Origin',(64.0230596280465,31.3028455202939,38.184));
#1059=CARTESIAN_POINT('',(60.8927772873788,28.9868455202939,15.5));
#1060=CARTESIAN_POINT('',(60.8927772873788,28.9868455202939,40.5));
#1061=CARTESIAN_POINT('',(60.8927772873788,28.9868455202939,15.5));
#1062=CARTESIAN_POINT('Origin',(77.853515270096,37.9382717039492,38.614));
#1063=CARTESIAN_POINT('',(59.6013524004114,26.7801415599306,38.614));
#1064=CARTESIAN_POINT('Origin',(60.7230983227571,25.2640010368587,38.614));
#1065=CARTESIAN_POINT('',(76.7317693477503,39.4544122270212,38.614));
#1066=CARTESIAN_POINT('Ctrl Pts',(60.7245236547702,27.6111415599306,37.783));
#1067=CARTESIAN_POINT('Ctrl Pts',(60.7245236547702,27.6111415599306,37.9694759639381));
#1068=CARTESIAN_POINT('Ctrl Pts',(60.5772115173215,27.5021498227001,38.2791136080666));
#1069=CARTESIAN_POINT('Ctrl Pts',(60.1049611266812,27.1527462272118,38.5571927626568));
#1070=CARTESIAN_POINT('Ctrl Pts',(59.7693784271456,26.9044588692227,38.614));
#1071=CARTESIAN_POINT('Ctrl Pts',(59.6013524004114,26.7801415599306,38.614));
#1072=CARTESIAN_POINT('Ctrl Pts',(60.9084779695143,27.7472437215191,37.783));
#1073=CARTESIAN_POINT('Ctrl Pts',(60.9084779695143,27.7472437215191,38.0558202753284));
#1074=CARTESIAN_POINT('Ctrl Pts',(60.7473344042387,27.623845258155,38.5081267860114));
#1075=CARTESIAN_POINT('Ctrl Pts',(60.2090343873273,27.227618942562,38.9783677196746));
#1076=CARTESIAN_POINT('Ctrl Pts',(59.8109967596545,26.9330023322251,39.1341245875092));
#1077=CARTESIAN_POINT('Ctrl Pts',(59.6013524004114,26.7801415599306,39.1782898804448));
#1078=CARTESIAN_POINT('Ctrl Pts',(61.2741634291545,27.9260743857951,37.783));
#1079=CARTESIAN_POINT('Ctrl Pts',(61.2741634291545,27.9260743857951,38.2068461267731));
#1080=CARTESIAN_POINT('Ctrl Pts',(61.1062291737284,27.7536586012564,38.9133523963681));
#1081=CARTESIAN_POINT('Ctrl Pts',(60.5443978902696,27.1491867911352,39.7163488581048));
#1082=CARTESIAN_POINT('Ctrl Pts',(60.1151836642145,26.667505478097,40.0408166005361));
#1083=CARTESIAN_POINT('Ctrl Pts',(59.8829594477098,26.3995243029506,40.1552634137189));
#1084=CARTESIAN_POINT('Ctrl Pts',(61.6746473730748,27.9810010368587,37.783));
#1085=CARTESIAN_POINT('Ctrl Pts',(61.6746473730748,27.9810010368587,38.3406496209384));
#1086=CARTESIAN_POINT('Ctrl Pts',(61.5209708497637,27.6888741437526,39.2673529060696));
#1087=CARTESIAN_POINT('Ctrl Pts',(61.0220182341164,26.7138121354436,40.1863629378251));
#1088=CARTESIAN_POINT('Ctrl Pts',(60.6584709983194,25.9851319289508,40.4486550967611));
#1089=CARTESIAN_POINT('Ctrl Pts',(60.4713791264117,25.604222174651,40.5));
#1090=CARTESIAN_POINT('Ctrl Pts',(61.8462695771158,27.9810010368587,37.783));
#1091=CARTESIAN_POINT('Ctrl Pts',(61.8462695771158,27.9810010368587,38.3926933742717));
#1092=CARTESIAN_POINT('Ctrl Pts',(61.6989574396671,27.6246465843254,39.4050706054356));
#1093=CARTESIAN_POINT('Ctrl Pts',(61.2267070490269,26.4822523978732,40.3142656271221));
#1094=CARTESIAN_POINT('Ctrl Pts',(60.8911243494912,25.6704632863731,40.5));
#1095=CARTESIAN_POINT('Ctrl Pts',(60.7230983227571,25.2640010368587,40.5));
#1096=CARTESIAN_POINT('',(60.7245236547702,27.6111415599306,37.783));
#1097=CARTESIAN_POINT('',(61.8462695771158,27.9810010368587,37.783));
#1098=CARTESIAN_POINT('Origin',(61.8462695771159,26.0950010368586,37.783));
#1099=CARTESIAN_POINT('Origin',(60.7230983227571,25.2640010368587,37.783));
#1100=CARTESIAN_POINT('Origin',(59.6013524004114,26.7801415599306,37.783));
#1101=CARTESIAN_POINT('Origin',(61.8462695771158,26.0950010368586,40.5));
#1102=CARTESIAN_POINT('',(60.7245236547702,27.6111415599306,15.5));
#1103=CARTESIAN_POINT('',(61.8462695771158,27.9810010368587,15.5));
#1104=CARTESIAN_POINT('Origin',(61.8462695771158,26.0950010368586,15.5));
#1105=CARTESIAN_POINT('',(61.8462695771158,27.9810010368587,40.5));
#1106=CARTESIAN_POINT('',(60.7245236547702,27.6111415599306,40.5));
#1107=CARTESIAN_POINT('Origin',(61.2244220093283,27.9810010368587,40.5));
#1108=CARTESIAN_POINT('',(61.2244220093283,27.9810010368587,15.5));
#1109=CARTESIAN_POINT('Origin',(90.2268295728418,31.3028455202939,38.184));
#1110=CARTESIAN_POINT('',(182.5,28.9868455202939,38.184));
#1111=CARTESIAN_POINT('Origin',(182.5,31.3028455202939,38.184));
#1112=CARTESIAN_POINT('',(90.2268295728418,28.9868455202939,38.184));
#1113=CARTESIAN_POINT('Origin',(151.030440929152,25.2640010368587,37.783));
#1114=CARTESIAN_POINT('',(182.5,27.9810010368587,37.783));
#1115=CARTESIAN_POINT('',(151.030440929152,27.9810010368587,37.783));
#1116=CARTESIAN_POINT('Origin',(182.5,25.2640010368587,37.783));
#1117=CARTESIAN_POINT('Origin',(182.5,27.9810010368587,40.5));
#1118=CARTESIAN_POINT('',(182.5,27.9810010368587,15.5));
#1119=CARTESIAN_POINT('',(61.2244220093283,27.9810010368587,15.5));
#1120=CARTESIAN_POINT('',(182.5,27.9810010368587,40.5));
#1121=CARTESIAN_POINT('Origin',(60.8927772873788,28.9868455202939,40.5));
#1122=CARTESIAN_POINT('',(182.5,28.9868455202939,15.5));
#1123=CARTESIAN_POINT('',(182.5,28.9868455202939,40.5));
#1124=CARTESIAN_POINT('',(60.8927772873788,28.9868455202939,15.5));
#1125=CARTESIAN_POINT('Origin',(119.560881858305,26.7812403500354,15.5));
#1126=CARTESIAN_POINT('',(182.5,62.5,15.5));
#1127=CARTESIAN_POINT('Origin',(182.5,62.5,42.));
#1128=CARTESIAN_POINT('',(182.5,38.25,42.));
#1129=CARTESIAN_POINT('Origin',(181.625,-33.625,42.));
#1130=CARTESIAN_POINT('',(181.625,-37.,42.));
#1131=CARTESIAN_POINT('',(185.,-33.625,42.));
#1132=CARTESIAN_POINT('Origin',(181.625,-33.625,42.));
#1133=CARTESIAN_POINT('',(185.,-33.625,45.));
#1134=CARTESIAN_POINT('',(185.,-33.625,42.));
#1135=CARTESIAN_POINT('',(181.625,-37.,45.));
#1136=CARTESIAN_POINT('Origin',(181.625,-33.625,45.));
#1137=CARTESIAN_POINT('',(181.625,-37.,42.));
#1138=CARTESIAN_POINT('Origin',(57.4967637166098,-37.,42.));
#1139=CARTESIAN_POINT('',(57.4967637166098,-37.,42.));
#1140=CARTESIAN_POINT('',(57.4967637166098,-37.,42.));
#1141=CARTESIAN_POINT('',(57.4967637166098,-37.,45.));
#1142=CARTESIAN_POINT('',(57.4967637166098,-37.,45.));
#1143=CARTESIAN_POINT('',(57.4967637166098,-37.,42.));
#1144=CARTESIAN_POINT('Origin',(57.4967637166098,-33.625,42.));
#1145=CARTESIAN_POINT('',(54.1217637166098,-33.625,42.));
#1146=CARTESIAN_POINT('Origin',(57.4967637166098,-33.625,42.));
#1147=CARTESIAN_POINT('',(54.1217637166098,-33.625,45.));
#1148=CARTESIAN_POINT('Origin',(57.4967637166098,-33.625,45.));
#1149=CARTESIAN_POINT('',(54.1217637166098,-33.625,42.));
#1150=CARTESIAN_POINT('Origin',(54.1217637166098,61.625,42.));
#1151=CARTESIAN_POINT('',(54.1217637166098,61.625,42.));
#1152=CARTESIAN_POINT('',(54.1217637166098,61.625,42.));
#1153=CARTESIAN_POINT('',(54.1217637166098,61.625,45.));
#1154=CARTESIAN_POINT('',(54.1217637166098,61.625,45.));
#1155=CARTESIAN_POINT('',(54.1217637166098,61.625,42.));
#1156=CARTESIAN_POINT('Origin',(57.4967637166098,61.625,42.));
#1157=CARTESIAN_POINT('',(57.4967637166098,65.,42.));
#1158=CARTESIAN_POINT('Origin',(57.4967637166098,61.625,42.));
#1159=CARTESIAN_POINT('',(57.4967637166098,65.,45.));
#1160=CARTESIAN_POINT('Origin',(57.4967637166098,61.625,45.));
#1161=CARTESIAN_POINT('',(57.4967637166098,65.,42.));
#1162=CARTESIAN_POINT('Origin',(181.625,65.,42.));
#1163=CARTESIAN_POINT('',(181.625,65.,42.));
#1164=CARTESIAN_POINT('',(181.625,65.,42.));
#1165=CARTESIAN_POINT('',(181.625,65.,45.));
#1166=CARTESIAN_POINT('',(181.625,65.,45.));
#1167=CARTESIAN_POINT('',(181.625,65.,42.));
#1168=CARTESIAN_POINT('Origin',(181.625,61.625,42.));
#1169=CARTESIAN_POINT('',(185.,61.625,42.));
#1170=CARTESIAN_POINT('Origin',(181.625,61.625,42.));
#1171=CARTESIAN_POINT('',(185.,61.625,45.));
#1172=CARTESIAN_POINT('Origin',(181.625,61.625,45.));
#1173=CARTESIAN_POINT('',(185.,61.625,42.));
#1174=CARTESIAN_POINT('Origin',(185.,-33.625,42.));
#1175=CARTESIAN_POINT('',(185.,-33.625,42.));
#1176=CARTESIAN_POINT('',(185.,-33.625,45.));
#1177=CARTESIAN_POINT('Origin',(119.560881858305,14.,45.));
#1178=CARTESIAN_POINT('Origin',(119.560881858305,14.,42.));
#1179=UNCERTAINTY_MEASURE_WITH_UNIT(LENGTH_MEASURE(0.01),#1183,
'DISTANCE_ACCURACY_VALUE',
'Maximum model space distance between geometric entities at asserted c
onnectivities');
#1180=UNCERTAINTY_MEASURE_WITH_UNIT(LENGTH_MEASURE(0.01),#1183,
'DISTANCE_ACCURACY_VALUE',
'Maximum model space distance between geometric entities at asserted c
onnectivities');
#1181=(
GEOMETRIC_REPRESENTATION_CONTEXT(3)
GLOBAL_UNCERTAINTY_ASSIGNED_CONTEXT((#1179))
GLOBAL_UNIT_ASSIGNED_CONTEXT((#1183,#1185,#1186))
REPRESENTATION_CONTEXT('','3D')
);
#1182=(
GEOMETRIC_REPRESENTATION_CONTEXT(3)
GLOBAL_UNCERTAINTY_ASSIGNED_CONTEXT((#1180))
GLOBAL_UNIT_ASSIGNED_CONTEXT((#1183,#1185,#1186))
REPRESENTATION_CONTEXT('','3D')
);
#1183=(
LENGTH_UNIT()
NAMED_UNIT(*)
SI_UNIT(.MILLI.,.METRE.)
);
#1184=(
LENGTH_UNIT()
NAMED_UNIT(*)
SI_UNIT($,.METRE.)
);
#1185=(
NAMED_UNIT(*)
PLANE_ANGLE_UNIT()
SI_UNIT($,.RADIAN.)
);
#1186=(
NAMED_UNIT(*)
SI_UNIT($,.STERADIAN.)
SOLID_ANGLE_UNIT()
);
#1187=SHAPE_DEFINITION_REPRESENTATION(#1188,#1189);
#1188=PRODUCT_DEFINITION_SHAPE('',$,#1191);
#1189=SHAPE_REPRESENTATION('',(#683),#1181);
#1190=PRODUCT_DEFINITION_CONTEXT('part definition',#1195,'design');
#1191=PRODUCT_DEFINITION('2026-08-17-16-19-30-452','skr3-lid',#1192,#1190);
#1192=PRODUCT_DEFINITION_FORMATION('',$,#1197);
#1193=PRODUCT_RELATED_PRODUCT_CATEGORY('skr3-lid','skr3-lid',(#1197));
#1194=APPLICATION_PROTOCOL_DEFINITION('international standard',
'automotive_design',2009,#1195);
#1195=APPLICATION_CONTEXT(
'Core Data for Automotive Mechanical Design Process');
#1196=PRODUCT_CONTEXT('part definition',#1195,'mechanical');
#1197=PRODUCT('2026-08-17-16-19-30-452','skr3-lid',$,(#1196));
#1198=PRESENTATION_STYLE_ASSIGNMENT((#1199));
#1199=SURFACE_STYLE_USAGE(.BOTH.,#1200);
#1200=SURFACE_SIDE_STYLE('',(#1201));
#1201=SURFACE_STYLE_FILL_AREA(#1202);
#1202=FILL_AREA_STYLE('Steel - Satin',(#1203));
#1203=FILL_AREA_STYLE_COLOUR('Steel - Satin',#1204);
#1204=COLOUR_RGB('Steel - Satin',0.627450980392157,0.627450980392157,0.627450980392157);
ENDSEC;
END-ISO-10303-21;
